<?xml version="1.0" encoding="utf-8"?><svg xmlns="http://www.w3.org/2000/svg" xmlns:xlink="http://www.w3.org/1999/xlink"><symbol viewBox="0 0 38 14" id="alfa_icon" xmlns="http://www.w3.org/2000/svg"><path d="M4.516-.001c.957 0 1.257.683 1.51 1.366l2.668 7.273c.02.057.006.15-.081.183-.089.034-1.381.534-1.453.56a.139.139 0 01-.177-.083c-.027-.07-.563-1.548-.624-1.713H2.673c-.058.165-.601 1.646-.625 1.713-.025.068-.102.114-.178.084l-1.451-.56a.145.145 0 01-.083-.184c.092-.254 2.541-6.925 2.666-7.273.243-.672.554-1.366 1.514-1.366zM.139 12.13a.14.14 0 00-.139.143v1.585a.14.14 0 00.14.141h8.748a.14.14 0 00.141-.141v-1.585a.141.141 0 00-.141-.143H.139zm4.368-9.917L3.26 5.938h2.512l-1.25-3.725h-.016zm15.97 6.107a1.278 1.278 0 01-.448.077c-.298 0-.463-.117-.463-.422 0-.317.21-.423.622-.423.1 0 .2.015.246.03v.228c0 .245.013.405.044.51zm1.06.363c-.22-.332-.277-.528-.277-.947v-.852c0-.458-.054-.624-.176-.791-.17-.237-.452-.34-.97-.34-.368 0-.725.04-1.07.128l.124.605a5.22 5.22 0 01.651-.06c.552 0 .615.079.615.49v.154a1.607 1.607 0 00-.42-.056c-.83 0-1.269.404-1.269 1.074 0 .628.469.97 1.04.97.212 0 .435-.04.612-.111a1.66 1.66 0 00.29-.162.88.88 0 00.317.265l.533-.367zm8.212-.363a1.28 1.28 0 01-.449.077c-.299 0-.466-.117-.466-.422 0-.317.212-.423.626-.423.1 0 .2.015.245.03v.228c0 .245.013.405.044.51zm1.06.363c-.221-.332-.278-.528-.278-.947v-.852c0-.458-.054-.624-.177-.791-.168-.237-.45-.34-.971-.34-.367 0-.726.04-1.072.128l.124.605c.234-.033.48-.06.657-.06.548 0 .613.079.613.49v.154a1.606 1.606 0 00-.422-.056c-.832 0-1.272.404-1.272 1.074 0 .628.47.97 1.044.97.215 0 .436-.04.61-.111.109-.046.154-.073.291-.162.084.12.25.242.319.265l.535-.367zm6.464.304s-.455-.966-.566-1.186c-.126-.247-.242-.418-.498-.48v-.013c.172-.033.308-.136.458-.452.141-.308.183-.375.267-.448.082-.073.193-.047.193-.047l.042-.569a2.084 2.084 0 00-.386-.009c-.226.013-.343.078-.455.19-.087.085-.146.212-.219.358-.078.16-.139.288-.22.45-.08.167-.117.242-.333.242h-.14V4.501h-.832v4.486h.831v-1.29l.114-.002c.238 0 .28.06.406.31.148.298.43.982.43.982h.908zm-23.416 0h.959l-1.451-4.41a1.752 1.752 0 00-.544-.083c-.22 0-.298.029-.47.082l-1.536 4.41h.92s.125-.386.271-.865h1.59l.26.866zM12.24 7.38l.307-1.023c.105-.357.266-.923.266-.923h.026s.149.587.245.917l.291 1.029H12.24zm10.713-.504a.53.53 0 10-.002 1.06.53.53 0 00.002-1.06zM15.955 4.5h-.834v4.485h.834V4.501zm16.557 1.965c.46.01.518.105.518.49v2.03h.826v-2.1c0-.458-.054-.624-.177-.791-.17-.237-.502-.34-1.066-.34a4.32 4.32 0 00-1.369.195v3.039h.835V6.505c.219-.032.257-.039.433-.039zM18.016 4.422c-.52 0-.804.102-.971.339-.123.167-.177.336-.177.796v.39h-.414v.671h.414v2.369h.826l-.002-2.369h.824v-.67h-.824l.002-.36c0-.41.063-.49.615-.49.06 0 .127.003.199.008l.13-.644a4.789 4.789 0 00-.622-.04zm6.63.041c.284-.016.918-.04 1.315-.04.073 0 .148 0 .224.005.781 0 1.23.566 1.23 1.231 0 .453-.209.753-.697.932.575.126.875.573.875 1.118 0 .4-.113.719-.322.936-.27.264-.678.413-1.223.413a29.08 29.08 0 01-1.401-.033V4.463zm1.315.735c-.137 0-.308.003-.477.009v1.077h.478c.19 0 .342-.053.445-.154a.525.525 0 00.151-.39c0-.345-.187-.54-.535-.542h-.062zm.018 3.086h.036c.434 0 .7-.23.703-.692a.615.615 0 00-.183-.43.704.704 0 00-.511-.19h-.54V8.28c.152.003.32.003.495.004z"/></symbol><symbol viewBox="0 0 9 13" id="all_right_icon" xmlns="http://www.w3.org/2000/svg"><path d="M8.842 5.976L.822.104a.61.61 0 00-.68 0c-.19.138-.19.36 0 .498l7.677 5.622-7.677 5.621c-.19.138-.19.36 0 .498a.585.585 0 00.338.105.567.567 0 00.339-.105l8.019-5.872c.189-.135.189-.36.004-.495z"/></symbol><symbol viewBox="0 0 19 20" id="bath_m_icon" xmlns="http://www.w3.org/2000/svg"><path d="M17.95 9.414H8.82V3.581c0-.474.192-.927.533-1.262a1.839 1.839 0 011.287-.522c.483 0 .946.188 1.287.522.341.335.533.788.533 1.262v1.165c-.301.067-.576.22-.79.438a1.535 1.535 0 00-.411.792h-.176a.936.936 0 00-.647.27.9.9 0 000 1.276c.171.17.404.267.647.27h4.583a.936.936 0 00.647-.27.9.9 0 000-1.276.936.936 0 00-.647-.27h-.176a1.534 1.534 0 00-.41-.79 1.584 1.584 0 00-.787-.44V3.582c0-.95-.385-1.86-1.07-2.532A3.691 3.691 0 0010.641 0a3.69 3.69 0 00-2.584 1.049 3.545 3.545 0 00-1.07 2.532v5.833H1.05c-.28.007-.548.12-.744.318a1.044 1.044 0 000 1.474c.196.197.463.31.744.317h.04v2.007a3.731 3.731 0 001.126 2.66 3.885 3.885 0 002.715 1.104h2.616v.792c0 .508.206.994.572 1.353.366.36.863.561 1.381.561s1.015-.202 1.381-.56a1.9 1.9 0 00.572-1.354v-.792h2.616a3.886 3.886 0 002.714-1.104 3.732 3.732 0 001.127-2.66v-2.006h.04c.28-.007.548-.12.744-.318a1.044 1.044 0 000-1.474 1.087 1.087 0 00-.744-.318zm-1.915-2.53a.358.358 0 01-.108.256.373.373 0 01-.26.106h-4.582a.372.372 0 01-.256-.109.358.358 0 010-.506.372.372 0 01.256-.108h4.582a.37.37 0 01.26.106c.07.068.108.16.108.255zm-1.114-.908h-3.09a.998.998 0 01.365-.521c.176-.13.39-.201.611-.201h1.137c.22 0 .435.07.611.201.177.13.305.313.366.521zM7.546 3.581c0-.805.326-1.577.906-2.146a3.127 3.127 0 012.189-.888c.821 0 1.608.32 2.189.888.58.57.906 1.341.906 2.146v1.126h-.717V3.58c0-.619-.25-1.211-.697-1.648a2.402 2.402 0 00-1.681-.683c-.63 0-1.235.246-1.681.683a2.307 2.307 0 00-.697 1.648v5.833h-.717V3.581zm3.349 14.505c0 .363-.147.71-.409.967a1.41 1.41 0 01-.986.4 1.41 1.41 0 01-.986-.4 1.354 1.354 0 01-.409-.967v-.792h2.79v.792zm6.457-4.556a3.19 3.19 0 01-.963 2.274 3.321 3.321 0 01-2.32.943H4.93a3.32 3.32 0 01-2.32-.943 3.19 3.19 0 01-.963-2.274v-2.006h15.704v2.006zm.598-2.553H1.05a.523.523 0 01-.355-.155.503.503 0 010-.706.523.523 0 01.355-.155h16.9c.134.005.261.06.355.155a.503.503 0 010 .706.523.523 0 01-.355.155z"/></symbol><symbol viewBox="0 0 33 41" id="book_icon" xmlns="http://www.w3.org/2000/svg"><path d="M27.67 15.127H12.497a.636.636 0 100 1.27h15.171a.636.636 0 100-1.27zm-18.136 0H8.222a.636.636 0 100 1.27h1.312a.636.636 0 100-1.27zM27.67 25.23h-1.133a.636.636 0 100 1.27h1.132a.636.636 0 100-1.27zm-4.097 0H8.222a.636.636 0 100 1.27h15.351a.636.636 0 100-1.27zM17.945 9.467H8.222a.636.636 0 100 1.27h9.723a.636.636 0 100-1.27zm9.725 10.73H8.221a.636.636 0 100 1.27h19.447a.636.636 0 100-1.27zm0 10.066H8.221a.636.636 0 100 1.27h19.447a.636.636 0 100-1.27z"/><path d="M30.678 0H3.98a1.46 1.46 0 00-1.46 1.455v1.557h-.582A1.937 1.937 0 000 4.942c0 1.065.87 1.932 1.938 1.932h.582v2.36h-.582A1.936 1.936 0 000 11.167c0 1.064.87 1.93 1.938 1.93h.582v2.361h-.582A1.936 1.936 0 000 17.389c0 1.065.87 1.932 1.938 1.932h.582v2.36h-.582A1.937 1.937 0 000 23.611c0 1.065.87 1.932 1.938 1.932h.582v2.36h-.582A1.936 1.936 0 000 29.834c0 1.065.87 1.931 1.938 1.931h.582v2.361h-.582A1.936 1.936 0 000 36.057c0 1.065.87 1.931 1.938 1.931h.582v1.557A1.46 1.46 0 003.98 41h26.698a1.46 1.46 0 001.46-1.455V1.455A1.46 1.46 0 0030.678 0zM1.938 5.604a.663.663 0 01-.664-.661c0-.365.298-.662.664-.662h2.07c.366 0 .663.297.663.662a.663.663 0 01-.663.661h-2.07zm0 6.223a.663.663 0 01-.664-.661c0-.365.298-.662.664-.662h2.07c.366 0 .663.297.663.662a.663.663 0 01-.663.661h-2.07zm0 6.223a.663.663 0 01-.664-.662c0-.364.298-.66.664-.66h2.07c.366 0 .663.296.663.66a.663.663 0 01-.663.662h-2.07zm0 6.223a.663.663 0 01-.664-.662c0-.364.298-.661.664-.661h2.07c.366 0 .663.297.663.661a.663.663 0 01-.663.662h-2.07zm0 6.223a.663.663 0 01-.664-.662c0-.364.298-.661.664-.661h2.07c.366 0 .663.297.663.661a.663.663 0 01-.663.662h-2.07zm0 6.223a.663.663 0 01-.664-.662c0-.364.298-.661.664-.661h2.07c.366 0 .663.297.663.661a.663.663 0 01-.663.662h-2.07zm28.74 3.011H3.98a.186.186 0 01-.186-.185v-1.556h.214a1.937 1.937 0 001.937-1.932c0-1.065-.869-1.93-1.937-1.93h-.214v-2.362h.214a1.936 1.936 0 001.937-1.93 1.936 1.936 0 00-1.937-1.932h-.214v-2.36h.214a1.936 1.936 0 001.937-1.932c0-1.064-.869-1.93-1.937-1.93h-.214v-2.362h.214a1.936 1.936 0 001.937-1.93 1.936 1.936 0 00-1.937-1.932h-.214v-2.36h.214a1.936 1.936 0 001.937-1.931 1.937 1.937 0 00-1.937-1.932h-.214v-2.36h.214a1.937 1.937 0 001.937-1.931c0-1.065-.87-1.931-1.937-1.931h-.214V1.455c0-.102.083-.185.186-.185h26.698c.102 0 .186.083.186.185v38.09a.186.186 0 01-.186.185z"/></symbol><symbol viewBox="0 0 22 22" id="cabinet_m_icon" xmlns="http://www.w3.org/2000/svg"><path d="M18.452 17.387h-2.13v.71h2.13v-.71zm0-2.839h-2.13v.71h2.13v-.71zm0-2.838h-2.13v.71h2.13v-.71zM22 .71V0H0v.71h.71v4.613H0v.71h22v-.71h-.71V.71H22zM10.645 5.323H6.387v-.71h4.258v.71zm0-1.42H7.097v-.71h3.548v.71zm0-1.42H6.387v1.42h-.71v1.42H1.42V.71h9.226v1.774zm1.42 2.84h-.71v-2.84h.71v2.84zm1.419 0h-.71v-2.84h.71v2.84zm1.42 0h-.71v-2.84h.71v2.84zm1.419 0h-.71v-2.84h.71v2.84zm4.258 0h-3.549V1.774h-5.677V.71h9.226v4.613z"/><path d="M10.846 8.682a2.218 2.218 0 00-2.198-1.94H6.255c-1.115 0-2.06.834-2.198 1.94-.008.063-.01.127-.018.19H0V11h.71v11h.71V11h2.488c0 .052-.005.103-.005.155a19.35 19.35 0 01-.261 3.16l-.048.285a1.063 1.063 0 00-.755 1.013c0 .587.477 1.065 1.064 1.065h3.194v3.193H3.903a1.066 1.066 0 000 2.13c.587 0 1.065-.478 1.065-1.065 0-.125-.026-.244-.066-.355h5.1c-.041.111-.067.23-.067.355a1.066 1.066 0 002.129 0c0-.587-.477-1.065-1.064-1.065H7.806v-3.193H11a1.061 1.061 0 00.309-2.078l-.047-.286a19.285 19.285 0 01-.262-3.16c0-.05-.004-.102-.005-.154h2.489v10.29h.71V22h.71v-.71h4.967V22h.71v-.71h.71V11H22V8.871H10.864c-.007-.063-.01-.126-.018-.189zM3.903 21.291a.355.355 0 11.001-.71.355.355 0 010 .71zM11 20.58a.355.355 0 110 .71.355.355 0 010-.71zm-6.659-6.15c.18-1.08.272-2.182.272-3.276 0-.795.05-1.597.148-2.385a1.508 1.508 0 011.494-1.318h2.393c.758 0 1.4.567 1.494 1.318.098.788.148 1.59.148 2.385 0 1.094.092 2.196.271 3.276l.02.118h-6.26l.02-.118zM.71 10.29v-.71h3.263a18.65 18.65 0 00-.043.71H.71zM11 15.258a.355.355 0 010 .71H3.903a.355.355 0 010-.71H11zm9.58 5.323h-6.386v-3.903h6.387v3.903zm0-4.613h-6.386v-2.129h6.387v2.129zm0-2.839h-6.386V11h6.387v2.13zm.71-3.548v.71H10.973a19.76 19.76 0 00-.043-.71h10.36z"/></symbol><symbol viewBox="0 0 20 20" id="cafe_m_icon" xmlns="http://www.w3.org/2000/svg"><path d="M4 5h2v1c0 .184.15.333.333.333H9v10.334a2.67 2.67 0 01-2.667 2.666.333.333 0 100 .667h7.333a.333.333 0 000-.666A2.67 2.67 0 0111 16.666V6.333h2.666A.333.333 0 0014 6V5h2a1.333 1.333 0 000-2.667H4A1.333 1.333 0 004 5zm7.668 14.334H8.332a3.33 3.33 0 001.335-2.667V6.333h.667v10.334a3.33 3.33 0 001.335 2.666zm1.665-13.667H6.666V5h6.667v.667zM4 3h12a.667.667 0 010 1.333H4A.667.667 0 014 3z"/><path d="M.333 20c.184 0 .334-.15.334-.333v-2.334h4v2.334a.333.333 0 00.666 0V8.939A.998.998 0 005 7H2V1a1 1 0 00-2 0v18.667c0 .184.15.333.333.333zm.334-3.333V9h4v7.667h-4zM.667 1a.333.333 0 01.666 0v6.333c0 .184.15.334.334.334H5a.333.333 0 010 .666H.667V1zM19 0a1 1 0 00-1 1v6h-3a.998.998 0 00-.333 1.939v10.728a.333.333 0 00.667 0v-2.334h4v2.334a.333.333 0 00.666 0V1a1 1 0 00-1-1zm-4 7.667h3.334c.184 0 .333-.15.333-.334V1a.333.333 0 01.666 0v7.333H15a.333.333 0 110-.666zm.334 9V9h4v7.667h-4z"/></symbol><symbol viewBox="0 0 32 44" id="cart_icon" xmlns="http://www.w3.org/2000/svg"><path d="M6.761 20.5H5.24c-.408 0-.739.224-.739.5s.33.5.739.5h1.52c.408 0 .739-.224.739-.5s-.33-.5-.739-.5zm20.493 12h-.508c-.136 0-.246.224-.246.5s.11.5.246.5h.508c.136 0 .246-.224.246-.5s-.11-.5-.246-.5zM7.5 26.269V23.73c0-.68-.224-1.231-.5-1.231s-.5.551-.5 1.231v2.538c0 .68.224 1.231.5 1.231s.5-.551.5-1.231zm18 0V23.73c0-.68-.224-1.231-.5-1.231s-.5.551-.5 1.231v2.538c0 .68.224 1.231.5 1.231s.5-.551.5-1.231zm-9 0V23.73c0-.68-.224-1.231-.5-1.231s-.5.551-.5 1.231v2.538c0 .68.224 1.231.5 1.231s.5-.551.5-1.231zm9.447-5.769H9.053c-.305 0-.553.224-.553.5s.248.5.553.5h16.894c.305 0 .553-.224.553-.5s-.248-.5-.553-.5zm-1.092 12H5.145c-.356 0-.645.224-.645.5s.289.5.646.5h19.709c.356 0 .645-.224.645-.5s-.289-.5-.645-.5zm1.938-4H5.207c-.39 0-.707.224-.707.5s.316.5.707.5h21.586c.39 0 .707-.224.707-.5s-.316-.5-.707-.5z"/><path fill-rule="evenodd" clip-rule="evenodd" d="M8.5 10.032h-5a.5.5 0 00-.5.481l-.997 27.038-1.971 5.241a.5.5 0 00.468.676H31a.5.5 0 00.481-.636l-1.485-5.264L28.5 10.504a.5.5 0 00-.499-.472h-4.5v1h4.027L29 37.678a.494.494 0 00.018.108l1.32 4.682H1.222l1.746-4.641A.5.5 0 003 37.669l.982-26.637H8.5v-1zm2 1h11v-1h-11v1z"/><path d="M16 1c-6.4 0-7.666 9.667-7.5 13h2c.032-2.5.5-11 5.5-11s5.469 8.5 5.5 11h2c.167-3.333-1.1-13-7.5-13z"/></symbol><symbol viewBox="0 0 11 19" id="chevron_back_icon" xmlns="http://www.w3.org/2000/svg"><path d="M.273 8.679L8.68.276a.947.947 0 011.336 0 .942.942 0 010 1.333l-7.74 7.737 7.738 7.736a.943.943 0 010 1.334.947.947 0 01-1.336 0L.272 10.013A.952.952 0 01.273 8.68z"/></symbol><symbol viewBox="0 0 19 33" id="chevron_right" xmlns="http://www.w3.org/2000/svg"><path d="M18.306 17.644L3.494 32.45a1.668 1.668 0 01-2.354 0 1.66 1.66 0 010-2.35l13.636-13.63L1.141 2.837a1.661 1.661 0 010-2.35 1.668 1.668 0 012.355 0l14.811 14.806c.64.641.64 1.71-.001 2.35z"/></symbol><symbol viewBox="0 0 13 13" id="clock_icon" xmlns="http://www.w3.org/2000/svg"><path d="M11.996 4.142a.5.5 0 00-.642-.285.488.488 0 00-.29.632 5.013 5.013 0 01-.084 3.826 5.129 5.129 0 01-2.85 2.734A5.246 5.246 0 014.15 11a5.265 5.265 0 01-1.032-.579 5.095 5.095 0 01-1.746-2.223 5.005 5.005 0 01.049-3.915 5.129 5.129 0 012.85-2.734 5.243 5.243 0 013.813-.016l-.353.586c-.097.161-.022.269.165.24l1.678-.267c.188-.03.29-.2.226-.376L9.231.141c-.064-.176-.195-.19-.292-.028l-.34.566A6.25 6.25 0 003.9.639 6.112 6.112 0 00.505 3.897a5.964 5.964 0 00-.059 4.665 6.07 6.07 0 002.082 2.65c.377.272.79.503 1.23.69a6.252 6.252 0 004.743.058 6.11 6.11 0 003.395-3.258 5.973 5.973 0 00.1-4.56z"/><path d="M5.982 2.385a.4.4 0 00-.404.397v3.954l3.677 1.87a.405.405 0 00.544-.17.394.394 0 00-.174-.535l-3.24-1.648V2.782a.4.4 0 00-.403-.397z"/></symbol><symbol viewBox="0 0 34 34" id="close_icon" xmlns="http://www.w3.org/2000/svg"><path d="M33.998 1.06L32.941 0 16.998 15.94 1.06 0 0 1.06 15.94 17 0 32.94 1.059 34l15.94-15.942L32.941 34l1.057-1.06L18.059 17l15.94-15.94z"/></symbol><symbol viewBox="0 0 22 22" id="dizain_m_icon" xmlns="http://www.w3.org/2000/svg"><path d="M2.484 11.71c-.587 0-1.065.477-1.065 1.064a1.066 1.066 0 002.129 0c0-.587-.477-1.065-1.064-1.065zm0 1.419a.355.355 0 110-.71.355.355 0 010 .71z"/><path d="M22 12.712a2.48 2.48 0 00-2.422-2.421 2.464 2.464 0 00-1.757.7l-.013.015c.138-1.995.471-2.87.774-3.659.298-.775.58-1.508.58-3.089 0-1.94-1.533-3.193-3.904-3.193-.728 0-1.1-.189-1.57-.427C13.098.338 12.43 0 11 0 9.569 0 8.901.339 8.312.638c-.47.238-.842.427-1.57.427-2.371 0-3.903 1.253-3.903 3.193 0 1.581.281 2.314.579 3.089.303.789.636 1.664.774 3.659l-.013-.014a2.43 2.43 0 00-1.757-.701A2.48 2.48 0 000 12.71a2.417 2.417 0 00.7 1.758c.382.39.881.65 1.416.745-.025.275-.083.448-.147.64a3.244 3.244 0 00-.196 1.178c0 .826.286 1.425 1.42 1.828v1.01a1.066 1.066 0 000 2.13h.354c.979 0 1.775-.796 1.775-1.774v-.935c1.347.153 3.183.225 5.677.225 2.494 0 4.33-.072 5.677-.225v.935c0 .978.796 1.774 1.775 1.774h.354a1.066 1.066 0 000-2.13v-1.01c1.134-.403 1.42-1.002 1.42-1.828 0-.59-.104-.901-.196-1.176-.064-.193-.122-.366-.146-.641a2.63 2.63 0 001.415-.745c.468-.48.716-1.104.7-1.758zM4.08 7.092c-.285-.743-.532-1.384-.532-2.834 0-1.532 1.224-2.484 3.194-2.484.897 0 1.402-.256 1.89-.504C9.177.995 9.74.71 11 .71s1.823.285 2.367.56c.489.248.994.504 1.891.504 1.97 0 3.194.952 3.194 2.484 0 1.45-.247 2.091-.532 2.835-.362.943-.766 1.997-.865 4.711a7.206 7.206 0 00-.696-.312c.125-2.634.552-3.753.898-4.654.282-.732.485-1.261.485-2.58 0-1.128-.906-1.774-2.484-1.774-1.068 0-1.675-.308-2.213-.581-.512-.26-.954-.484-2.045-.484s-1.533.225-2.046.484c-.537.273-1.144.58-2.212.58-1.578 0-2.484.647-2.484 1.775 0 1.319.203 1.848.485 2.58.346.902.773 2.022.898 4.654-.284.11-.513.217-.696.313-.099-2.715-.503-3.77-.865-4.712zm11.58 4.16c-1.055-.322-2.575-.607-4.66-.607s-3.606.285-4.66.606c-.142-2.6-.58-3.741-.934-4.667-.274-.71-.438-1.139-.438-2.326 0-.88.965-1.064 1.774-1.064 1.237 0 1.986-.38 2.534-.658.466-.237.803-.407 1.724-.407.921 0 1.258.17 1.725.407.547.278 1.296.658 2.533.658.81 0 1.774.184 1.774 1.064 0 1.187-.164 1.616-.437 2.326-.355.925-.792 2.066-.935 4.667zM4.613 20.225c0 .587-.478 1.064-1.065 1.064h-.354a.355.355 0 010-.71.71.71 0 00.71-.71v-.81c.215.05.45.095.709.136v1.03zm14.548.71a.355.355 0 01-.355.354h-.354a1.066 1.066 0 01-1.065-1.064v-1.03c.259-.042.494-.087.71-.136v.81c0 .392.318.71.71.71.195 0 .354.16.354.355zm1.63-6.963a1.92 1.92 0 01-1.366.575h-.973v.71h.724c.032.37.11.608.181.822.085.256.16.478.16.952 0 1.006-.628 1.774-8.517 1.774-7.889 0-8.516-.768-8.516-1.774 0-.474.074-.696.159-.952.071-.214.15-.451.18-.822h.725v-.71h-.973a1.92 1.92 0 01-1.366-.575A1.712 1.712 0 01.71 12.73a1.77 1.77 0 011.73-1.728c.454-.018.902.165 1.243.498.36.351.567.84.573 1.344l.002.286v.635c0 .718-.115 1.427-.342 2.108l-.35 1.048.674.224.349-1.047a7.61 7.61 0 00.14-.484h10.884v-.71H4.878c.059-.376.09-.756.09-1.14v-.898l-.003-.049c0-.068 0-.138-.002-.205.47-.295 2.29-1.256 6.037-1.256 3.746 0 5.566.96 6.037 1.256l-.002.205c0 .016-.003.033-.003.05v.898c0 .383.032.763.09 1.14h-.8v.709h.949c.042.162.087.324.14.483l.35 1.048.672-.224-.349-1.048a6.652 6.652 0 01-.342-2.108v-.635l.002-.286a1.92 1.92 0 01.573-1.344 1.733 1.733 0 011.244-.498 1.77 1.77 0 011.729 1.729c.01.46-.166.902-.499 1.243z"/><path d="M19.516 11.71a1.065 1.065 0 000 2.129 1.066 1.066 0 000-2.129zm0 1.419a.355.355 0 110-.71.355.355 0 010 .71zM7.097 4.258h-.71v.71h.71v-.71zm2.129 0h-.71v.71h.71v-.71zm2.129 0h-.71v.71h.71v-.71zm2.129 0h-.71v.71h.71v-.71zm2.129 0h-.71v.71h.71v-.71zM7.097 17.032h-.71v.71h.71v-.71zm2.129 0h-.71v.71h.71v-.71zm2.129 0h-.71v.71h.71v-.71zm2.129 0h-.71v.71h.71v-.71zm2.129 0h-.71v.71h.71v-.71zM8.161 6.387h-.71v.71h.71v-.71zm2.129 0h-.709v.71h.71v-.71zm2.13 0h-.71v.71h.71v-.71zm2.129 0h-.71v.71h.71v-.71zM7.097 8.516h-.71v.71h.71v-.71zm2.129 0h-.71v.71h.71v-.71zm2.129 0h-.71v.71h.71v-.71zm2.129 0h-.71v.71h.71v-.71zm2.129 0h-.71v.71h.71v-.71z"/></symbol><symbol viewBox="0 0 12 13" id="door_icon" xmlns="http://www.w3.org/2000/svg"><path d="M7.52 9.445h.936v2.032c0 .84-.63 1.523-1.405 1.523H1.405C.631 13 0 12.317 0 11.477V1.523C0 .683.63 0 1.405 0h5.646c.775 0 1.405.683 1.405 1.523v2.032H7.52V1.523c0-.28-.21-.507-.468-.507H1.405c-.258 0-.468.227-.468.507v9.954c0 .28.21.507.468.507h5.646c.258 0 .468-.227.468-.507V9.445zm2.27-5.339l-.662.718 1.077 1.168h-6.06v1.016h6.06L9.13 8.176l.662.718L12 6.5 9.791 4.106z"/></symbol><symbol viewBox="0 0 17 22" id="euro_icon" xmlns="http://www.w3.org/2000/svg"><path fill-rule="evenodd" clip-rule="evenodd" d="M6.484 1.934C8.632.41 11.1 0 12.5 0c2.154 0 3.453.54 4.207 1.293l-1.414 1.414C15.047 2.461 14.346 2 12.5 2c-1.1 0-3.132.34-4.859 1.566C5.972 4.75 4.5 6.819 4.5 10.5c0 3.75 1.278 6.092 2.855 7.505C8.96 19.445 10.963 20 12.5 20c.888 0 1.566-.148 2.039-.317a3.32 3.32 0 00.55-.25c.066-.038.116-.072.152-.098.037-.027.052-.042.052-.042l1.414 1.414C16.14 21.276 14.69 22 12.5 22c-1.963 0-4.46-.695-6.48-2.505C3.972 17.658 2.5 14.75 2.5 10.5c0-4.319 1.778-7 3.984-8.566z"/><path fill-rule="evenodd" clip-rule="evenodd" d="M14.5 9.5H0v-2h14.5v2zm0 5H0v-2h14.5v2z"/></symbol><symbol viewBox="0 0 30 30" id="fb_icon" xmlns="http://www.w3.org/2000/svg"><path d="M25.605 0H4.395A4.4 4.4 0 000 4.395v21.21A4.4 4.4 0 004.395 30h8.847V19.395H9.727V14.12h3.515v-3.574a5.28 5.28 0 015.274-5.274h5.332v5.274h-5.332v3.574h5.332l-.88 5.274h-4.452V30h7.09A4.4 4.4 0 0030 25.605V4.395A4.4 4.4 0 0025.605 0z"/></symbol><symbol viewBox="0 0 20 20" id="garden_m_icon" xmlns="http://www.w3.org/2000/svg"><path d="M20 12.556V9.1h-.425a4.96 4.96 0 00-3.363 1.3h-5.879V5.2h8.472c.564 0 .738-.743.231-.983L10.145.032a.341.341 0 00-.29 0L.965 4.217c-.508.24-.334.983.23.983h8.472v5.2h-5.88A4.96 4.96 0 00.426 9.1H0v3.456c0 .893.689 1.629 1.576 1.731l-1.233 4.81a.325.325 0 00.243.393.334.334 0 00.404-.236l1.194-4.656 1.498 4.674a.335.335 0 00.417.213.324.324 0 00.22-.407L2.786 14.3h2.546v-.414c0-.537-.09-1.054-.258-1.536H8v1.3h1v2.6c0 1.436-1.194 2.6-2.667 2.6h-.666a.33.33 0 00-.334.325c0 .18.15.325.334.325h8.666a.33.33 0 00.334-.325.33.33 0 00-.334-.325h-.666c-1.473 0-2.667-1.164-2.667-2.6v-2.6h1v-1.3h2.925a4.67 4.67 0 00-.259 1.536v.414h2.24l-1.23 4.796a.325.325 0 00.243.394.334.334 0 00.404-.236l1.194-4.656 1.498 4.674a.335.335 0 00.418.213.323.323 0 00.218-.407L18.12 14.3h.091c.988 0 1.789-.78 1.789-1.744zM10 .686l8.21 3.864H1.79L10 .686zM2.335 13.65h-.546c-.62 0-1.122-.49-1.122-1.094v-2.8a4.279 4.279 0 012.716 1.166l.034.033c.354.344.645.752.859 1.206l.083.175c.17.41.274.852.3 1.314H2.336zm8.998-.65h-1v3.25a3.22 3.22 0 001.333 2.6H8.334a3.219 3.219 0 001.333-2.6V13h-1v-.65h2.666V13zM12 11.7H4.792a4.773 4.773 0 00-.413-.65H15.62a4.781 4.781 0 00-.414.65H12zm3.641.636l.083-.175c.214-.454.505-.862.859-1.206l.034-.033a4.279 4.279 0 012.716-1.165v2.799c0 .604-.502 1.094-1.122 1.094H15.34a4.04 4.04 0 01.301-1.314z"/></symbol><symbol viewBox="0 0 30 30" id="google_icon" xmlns="http://www.w3.org/2000/svg"><path fill-rule="evenodd" clip-rule="evenodd" d="M0 0v30h30V0H0zm10.66 22.594A7.548 7.548 0 013.066 15a7.548 7.548 0 017.594-7.594c2.062 0 3.798.759 5.1 2.061l-2.062 1.953c-.542-.543-1.519-1.194-3.038-1.194-2.603 0-4.665 2.17-4.665 4.774s2.062 4.774 4.665 4.774c3.038 0 4.123-2.17 4.34-3.255h-4.34v-2.604h7.16c.11.434.11.76.11 1.302 0 4.34-2.93 7.377-7.27 7.377zm16.274-6.51h-2.17v2.17h-2.17v-2.17h-2.17v-2.169h2.17v-2.17h2.17v2.17h2.17v2.17z"/></symbol><symbol viewBox="0 0 24 18" id="gost_m_icon" xmlns="http://www.w3.org/2000/svg"><path d="M23.938 7.495a1.881 1.881 0 00-.502-.874l.263-1.579A2.448 2.448 0 0021.99 2.3a2.44 2.44 0 00-2.22.426 2.327 2.327 0 00-1.33-1.68 2.298 2.298 0 00-2.523.427A2.312 2.312 0 0013.761 0H10.24a2.312 2.312 0 00-2.156 1.473 2.298 2.298 0 00-2.522-.426 2.32 2.32 0 00-1.313 1.61 2.315 2.315 0 00-2.097-.4A2.618 2.618 0 00.326 5.189l.241 1.444A1.93 1.93 0 00.02 7.71 2.002 2.002 0 001.2 9.828v3.807c0 .737.513 1.352 1.2 1.518v1.648c0 .22.178.4.4.4H4a.4.4 0 00.371-.251l.7-1.75h13.858l.7 1.75a.4.4 0 00.371.25h1.2a.4.4 0 00.4-.4v-1.648a1.566 1.566 0 001.2-1.519V9.83a1.994 1.994 0 001.137-2.334zm-3.535-4.24A1.642 1.642 0 0122.91 4.91l-.206 1.234-.042-.013c-.039-.014-.079-.026-.119-.038a2.178 2.178 0 00-.187-.046c-.038-.008-.076-.016-.115-.022a2.102 2.102 0 00-.283-.023L21.935 6A2.338 2.338 0 0019.6 8.335v1.892l-.01-.004c-.24-.08-.48-.152-.722-.216l-.005-.002.583-4.09.215-1.506c.067-.475.338-.895.742-1.154zM4.613 12a.213.213 0 01-.213-.213v-.704a10.692 10.692 0 012.095-.537 9.873 9.873 0 01.942-.095c.09-.004.179-.009.268-.011a10.333 10.333 0 011.614.082c.11.014.221.026.332.044a10.668 10.668 0 011.036.218c.044.012.088.027.132.04a10.461 10.461 0 01.781.255V12H4.613zm7.787-.92c.037-.014.073-.028.11-.04.222-.08.446-.152.671-.216.045-.013.088-.028.132-.04a10.374 10.374 0 011.037-.218c.11-.018.22-.03.332-.044.222-.028.444-.052.666-.066.09-.006.18-.009.27-.012.226-.009.451-.01.677-.004.09.002.179.007.268.012a10.121 10.121 0 011.61.217 9.878 9.878 0 011.427.415v.704a.213.213 0 01-.213.213H12.4v-.921zm4.376-9.25a1.508 1.508 0 011.338-.052c.617.274.98.932.886 1.6l-.298 2.09-.622 4.356a11.087 11.087 0 00-3.124-.148l1.066-6.825c.092-.436.36-.807.754-1.02zm-7.689-.5C9.375.993 9.795.8 10.239.8h3.522a1.513 1.513 0 011.498 1.75l-.017.11c-.01.045-.022.09-.03.138l-1.118 6.997c-.15.026-.3.055-.449.088l-.103.022c-.132.03-.264.063-.395.098l-.158.043a10.969 10.969 0 00-.824.267c-.055.02-.11.037-.165.058l-.165-.058c-.094-.035-.19-.07-.284-.102l-.207-.066a12.28 12.28 0 00-.49-.142 11.78 11.78 0 00-.397-.098l-.102-.022a10.16 10.16 0 00-.449-.088L8.788 2.797c-.007-.047-.02-.092-.03-.139L8.74 2.55a1.511 1.511 0 01.346-1.22zm-3.202.447A1.513 1.513 0 017.977 2.85l1.067 6.826a11.073 11.073 0 00-3.125.148L5.11 4.149v-.004L5 3.377a1.523 1.523 0 01.885-1.6zm-4.59 4.369l-.18-1.089A1.815 1.815 0 012.38 3.023 1.516 1.516 0 014.318 4.26l.819 5.745-.006.002c-.241.064-.482.135-.72.216l-.011.004V8.335a2.337 2.337 0 00-1.908-2.294 2.065 2.065 0 00-.417-.043c-.061 0-.12.012-.18.018-.073.006-.146.008-.217.02-.02.005-.038.012-.058.016-.11.024-.216.053-.319.093h-.005zM3.73 16.4H3.2v-1.2h1.01l-.48 1.2zm17.071 0h-.529l-.48-1.2h1.01v1.2zm1.5-7.245a.39.39 0 00-.099.044h-.6a.4.4 0 100 .8h.4v3.634a.767.767 0 01-.767.766H2.766A.767.767 0 012 13.634V10h.4a.4.4 0 100-.8h-.602a.383.383 0 00-.098-.044 1.2 1.2 0 01-.888-1.334c.042-.29.196-.543.418-.726.004-.003.01-.005.014-.009.442-.352 1.204-.455 1.829.15.335.324.526.803.526 1.314V12.4a.4.4 0 00.4.4H20a.4.4 0 00.4-.4V8.601c0-.438.132-.853.372-1.168.261-.344.591-.552.954-.612.042-.006.084-.01.127-.012.047-.003.093-.006.14-.004a1.33 1.33 0 01.261.038c.018.004.036.007.053.012.162.048.316.124.451.23.197.155.344.362.403.603a1.2 1.2 0 01-.861 1.468z"/></symbol><symbol viewBox="0 0 30 30" id="inst_icon" xmlns="http://www.w3.org/2000/svg"><path d="M25.605 0H4.395A4.4 4.4 0 000 4.395v21.21A4.4 4.4 0 004.395 30h21.21A4.4 4.4 0 0030 25.605V4.395A4.4 4.4 0 0025.605 0zM15.06 22.852c-4.362 0-7.91-3.549-7.91-7.91 0-4.362 3.548-7.91 7.91-7.91 4.361 0 7.91 3.548 7.91 7.91 0 4.361-3.549 7.91-7.91 7.91zm8.789-14.063a2.64 2.64 0 01-2.637-2.637 2.64 2.64 0 012.637-2.636 2.64 2.64 0 012.636 2.636 2.64 2.64 0 01-2.636 2.637z"/><path d="M23.848 5.273a.88.88 0 100 1.76.88.88 0 000-1.76zM15.059 8.79a6.16 6.16 0 00-6.153 6.151 6.16 6.16 0 006.153 6.153 6.16 6.16 0 006.152-6.153 6.16 6.16 0 00-6.152-6.152z"/></symbol><symbol viewBox="0 0 22 22" id="kids_m_icon" xmlns="http://www.w3.org/2000/svg"><path d="M19.21 14.478c-.25-1.976-1.196-3.479-2.043-4.807-.64-1.004-1.202-1.888-1.327-2.777.042-.018.083-.034.126-.055 1.309-.655 3.653-.995 3.677-.999l.295-.042V4.125c0-.634-.19-.998-1.285-1.363l-3.184-.868V0h-1.375a4.474 4.474 0 00-4.469 4.469v1.718c0 1.102.222 2.024.632 2.743v.003h.001c.238.417.538.766.898 1.036H5.448l-.562-3.371a.903.903 0 00-1.792.148v3.223h-.688v2.75h.86c-.467 1.29-.511 2.98-.515 4.667A8.462 8.462 0 011.3 15.94a.404.404 0 00-.471-.132c-.462.186-.495 1.29-.484 1.41.373 4.093 6.81 4.093 10.655 4.093 7.071 0 10.657-1.387 10.657-4.125 0-1.139-.449-2.474-2.447-2.71zm.04-10.353v1.081c-.697.117-2.457.451-3.59 1.018-1.028.513-1.547-.426-1.602-.534l-.615.308c.229.457.836 1.122 1.731 1.065.166 1.013.773 1.972 1.414 2.978.788 1.237 1.666 2.633 1.924 4.4a2.06 2.06 0 00-1.22 3.683 25.81 25.81 0 01-3.396.615c1.48-2.07 1.759-4.164.795-6.02h1.122v-.344a2.407 2.407 0 00-2.245-2.398c-1.03-1.087-1.537-2.663-1.537-4.82 0-2.006 1.39-2.734 2.705-2.75l3.718 1.013c.796.265.796.385.796.705zM8.67 12.719h5.23c1.145 1.852.822 3.956-.938 6.11a25.17 25.17 0 01-1.963.077c-.351 0-.695.003-1.033.005-1.533.011-2.885.019-4.119-.201.042-3.08 1.063-5.253 2.82-5.991zm5.033-10.865c-.15.04-.293.091-.43.148l-.44-1.094c.207-.074.423-.13.645-.166l.223 1.112zm-1.038.482c-.046.032-.093.063-.137.098l-.99-.742c.204-.19.429-.355.671-.496l.456 1.14zm-.624.593a3.03 3.03 0 00-.251.385l-1.116-.446c.111-.236.245-.458.4-.665l.967.726zm-.52 1.018a3.664 3.664 0 00-.113.459l-1.08-.216c.017-.232.056-.457.113-.675l1.08.432zm-.174 1.148l-.002.061c0 .213.01.414.02.616l-1.051-.21v-.674l1.033.207zm.073 1.39c.024.22.054.434.09.642l-1.156-.193a7.015 7.015 0 01-.038-.67l1.104.22zm.248 1.365c.061.227.13.446.21.656L10.7 8.31a3.948 3.948 0 01-.223-.658l1.19.198zm3.114-6.131c-.137 0-.27.006-.402.018l-.21-1.05h.612V1.72zm-2.564 7.54c.117.22.246.427.387.624a2.6 2.6 0 01-1.402-.793l1.015.17zM3.781 6.747a.215.215 0 01.427-.036L4.75 9.97h-.97V6.746zm-.687 3.91h10.313c.83 0 1.524.592 1.684 1.375H3.094v-1.375zm.917 2.063h3.348c-1.356 1.126-2.133 3.174-2.195 5.844a6.768 6.768 0 01-1.726-.717c0-1.888.01-3.827.573-5.127zM11 20.625c-3.612 0-9.656 0-9.97-3.469-.01-.1.01-.264.04-.417 2.54 2.905 5.362 2.884 8.901 2.86.336-.003.678-.005 1.028-.005 4.06 0 7.09-.97 7.318-1.046.08.01.162.015.245.015a1.376 1.376 0 000-2.75h-.344v.687h.344a.688.688 0 010 1.375 1.376 1.376 0 01-1.375-1.375c0-.758.616-1.375 1.375-1.375 1.642 0 2.406.655 2.406 2.063 0 2.248-3.447 3.437-9.969 3.437z"/><path d="M14.781 3.781a.344.344 0 100-.687.344.344 0 000 .687z"/></symbol><symbol viewBox="0 0 20 20" id="kitchen_m_icon" xmlns="http://www.w3.org/2000/svg"><path d="M20 1.29V.645A.646.646 0 0019.355 0H.645A.646.646 0 000 .645v.645c0 .356.29.645.645.645v9.678a.646.646 0 00-.645.645v.645c0 .356.29.645.645.645v4.516A.646.646 0 000 18.71v.645c0 .356.29.645.645.645h18.71c.356 0 .645-.29.645-.645v-.645a.646.646 0 00-.645-.646v-4.516a.645.645 0 00.645-.645v-.645a.646.646 0 00-.645-.645V1.935A.645.645 0 0020 1.29zM.645.645h18.71v.645H.645V.645zm10.323 5.161v-3.87h6.451v3.87h-6.451zm-1.936-3.87v3.87H2.581v-3.87h6.451zm.645 0h.646v3.87h-.646v-3.87zm-7.742 0v3.87H1.29v-3.87h.645zM1.29 13.547h.645v4.516H1.29v-4.516zm3.226 0h2.58v.646h-2.58v-.646zm3.226 1.29v-1.29h1.29v1.936H2.581v-1.936h1.29v1.29h3.87zm3.226 3.226v-4.516h6.451v4.516h-6.451zm-.645 0h-.646v-4.516h.646v4.516zM2.58 16.13h1.29v1.29h3.87v-1.29h1.291v1.935h-6.45V16.13zm1.935 0h2.58v.645h-2.58v-.645zm14.84 3.226H.645v-.645h18.709v.645zm-.646-1.29h-.646v-4.517h.646v4.516zm.645-5.162H.645v-.645h18.71v.645zm-1.936-1.29v-.968h.645V10H16.13v.645h.645v.968h-1.29V8.387a1.291 1.291 0 00-2.58 0v.323h.644v-.323a.646.646 0 011.29 0v1.936h-.644v.645h.645v.645H1.29V6.452h17.42v5.16h-1.29zm1.29-5.807h-.645v-3.87h.646v3.87z"/><path d="M16.129 14.839h.645v1.935h-.645V14.84zM11.612 3.226h.646v1.29h-.646v-1.29zm-3.87 0h.645v1.29h-.645v-1.29z"/></symbol><symbol viewBox="0 0 20 20" id="lobby_m_icon" xmlns="http://www.w3.org/2000/svg"><path d="M9.333 1.3A.33.33 0 009 1.623v1.3c0 .18.15.325.333.325a.33.33 0 00.334-.325v-1.3a.33.33 0 00-.334-.325zm9.334 0a.33.33 0 00-.333.324v1.3c0 .18.15.325.333.325a.33.33 0 00.334-.325v-1.3a.33.33 0 00-.334-.325zM7 0H.333A.33.33 0 000 .325v18.85c0 .18.15.325.333.325H7a.33.33 0 00.333-.325V.325A.33.33 0 007 0zm-.333 18.85h-6V.65h6v18.2z"/><path d="M19.667 13.65H7a.33.33 0 00-.333.325v5.2c0 .18.15.325.333.325h12.667a.33.33 0 00.333-.325v-5.2a.33.33 0 00-.333-.325zm-.333 5.2h-12V14.3h12v4.55zM19.667 0H7a.33.33 0 00-.333.325v1.3c0 .18.15.325.333.325h12.667A.33.33 0 0020 1.625v-1.3A.33.33 0 0019.667 0zm-.333 1.3h-12V.65h12v.65zM5.333 9.425h-1A.33.33 0 004 9.75c0 .18.15.325.333.325h1a.33.33 0 00.334-.325.33.33 0 00-.334-.325z"/><path d="M4.333 9.425A.33.33 0 004 9.75v.975c0 .18.15.325.333.325a.33.33 0 00.334-.325V9.75a.33.33 0 00-.334-.325zm10 6.499h-2a.33.33 0 00-.333.325c0 .18.15.325.333.325h2a.33.33 0 00.334-.325.33.33 0 00-.334-.325z"/><path d="M13.333 15.924a.33.33 0 00-.333.325v.65c0 .18.15.325.333.325a.33.33 0 00.334-.325v-.65a.33.33 0 00-.334-.325zm-2-14.624a.33.33 0 00-.333.324v1.95c0 .18.15.325.333.325a.33.33 0 00.334-.325v-1.95a.33.33 0 00-.334-.325zm0 3.25c-1.794 0-3 .653-3 1.625v.65c0 .18.15.325.333.325h.667v2.925c0 .18.15.325.333.325H13a.33.33 0 00.333-.325V7.15H14a.33.33 0 00.333-.325v-.65c0-.972-1.206-1.625-3-1.625zm2.333 1.95H13a.33.33 0 00-.334.325V9.75H10V6.825a.33.33 0 00-.334-.325H9v-.325c0-.472.817-.975 2.333-.975 1.516 0 2.333.503 2.333.975V6.5z"/><path d="M13.667 4.55c-.444 0-.861.041-1.238.122a.327.327 0 00-.262.317c0 .153.109.285.262.318.752.16 1.238.501 1.238.868V6.5H13a.33.33 0 00-.333.325v3.25c0 .18.15.325.333.325h2.334a.33.33 0 00.333-.325V7.15h.667a.33.33 0 00.333-.325v-.65c0-.972-1.206-1.625-3-1.625zM16 6.5h-.666a.33.33 0 00-.334.325V9.75h-1.666v-2.6H14a.33.33 0 00.334-.325v-.65c0-.373-.185-.707-.523-.973 1.423.03 2.19.516 2.19.973V6.5z"/><path d="M16 4.55c-.444 0-.861.041-1.238.122a.327.327 0 00-.262.317c0 .153.109.285.262.318.752.16 1.238.501 1.238.868V6.5h-.667a.33.33 0 00-.333.325v3.25c0 .18.15.325.333.325h2.334a.33.33 0 00.333-.325V7.15h.667A.33.33 0 0019 6.825v-.65c0-.972-1.206-1.625-3-1.625zm2.333 1.95h-.666a.33.33 0 00-.334.325V9.75h-1.666v-2.6h.666a.33.33 0 00.334-.325v-.65c0-.373-.185-.707-.523-.973 1.423.03 2.19.516 2.19.973V6.5zm-7-3.25a.33.33 0 00-.333.325c0 .18.15.325.333.325a.33.33 0 01.334.325.33.33 0 01-.334.325.33.33 0 00-.333.325c0 .18.15.325.333.325.552 0 1-.438 1-.975a.989.989 0 00-1-.975zM14 1.3a.33.33 0 00-.334.324v1.95c0 .18.15.325.333.325a.33.33 0 00.334-.325v-1.95a.33.33 0 00-.334-.325z"/><path d="M14 3.25a.33.33 0 00-.334.325c0 .18.15.325.333.325a.33.33 0 01.334.325.33.33 0 01-.334.325.33.33 0 00-.333.325c0 .18.15.325.333.325.552 0 1-.438 1-.975a.989.989 0 00-1-.975zm2.666-1.95a.33.33 0 00-.333.324v1.95c0 .18.15.325.333.325A.33.33 0 0017 3.574v-1.95a.33.33 0 00-.334-.325z"/><path d="M16.666 3.25a.33.33 0 00-.333.325c0 .18.15.325.333.325a.33.33 0 01.334.325.33.33 0 01-.334.325.33.33 0 00-.333.325c0 .18.15.325.333.325.552 0 1-.438 1-.975a.989.989 0 00-1-.975zM19 12.35H7a.33.33 0 00-.333.326v1.3c0 .179.15.324.333.324h12a.33.33 0 00.334-.325v-1.3a.33.33 0 00-.334-.324zm-.333 1.3H7.334V13h11.333v.65zm-.334 1.3h-10a.33.33 0 00-.333.324v2.6c0 .18.15.325.333.325h10a.33.33 0 00.334-.325v-2.6a.33.33 0 00-.334-.325zM18 17.55H8.667V15.6H18v1.95z"/></symbol><symbol viewBox="0 0 12 15" id="location_icon" xmlns="http://www.w3.org/2000/svg"><path d="M10.923 2.608C9.791.951 7.996 0 6 0S2.21.95 1.077 2.608A6.115 6.115 0 00.38 8.189c.184.504.477.993.869 1.452l4.356 5.174a.516.516 0 00.79 0l4.355-5.173c.394-.461.687-.95.87-1.45a6.116 6.116 0 00-.697-5.584zm-.275 5.217a3.75 3.75 0 01-.684 1.133l-.002.003L6 13.667 2.036 8.958a3.751 3.751 0 01-.685-1.136 5.058 5.058 0 01.58-4.617A4.866 4.866 0 016 1.049c1.65 0 3.133.786 4.07 2.156a5.059 5.059 0 01.577 4.62z"/><path d="M6 3.112c-1.601 0-2.904 1.317-2.904 2.937 0 1.62 1.303 2.937 2.904 2.937 1.602 0 2.904-1.317 2.904-2.937 0-1.62-1.302-2.937-2.904-2.937zm0 4.825A1.88 1.88 0 014.133 6.05 1.88 1.88 0 016 4.16a1.88 1.88 0 011.867 1.888A1.88 1.88 0 016 7.937z"/></symbol><symbol viewBox="0 0 42 27" id="master_icon" xmlns="http://www.w3.org/2000/svg"><path d="M11.192 11.709c-.786 0-1.39.25-1.39.25l-.166.982s.497-.201 1.25-.201c.428 0 .74.047.74.392 0 .209-.037.287-.037.287s-.337-.028-.493-.028c-.993 0-2.036.42-2.036 1.687 0 .999.684 1.227 1.108 1.227.81 0 1.16-.52 1.178-.522l-.038.435h1.01l.45-3.135c0-1.332-1.17-1.374-1.576-1.374zm-.566 3.642c-.356 0-.45-.27-.45-.43 0-.311.17-.686 1.012-.686.196 0 .217.02.25.027.022.191-.12 1.09-.812 1.09zm4.216-2.591c.161 0 .784.05.784.05l.145-1.004s-.403-.09-1.06-.09c-.848 0-1.71.337-1.71 1.487 0 1.304 1.437 1.171 1.437 1.722 0 .366-.401.396-.71.396-.537 0-1.019-.182-1.02-.174l-.153.996c.027.008.325.139 1.288.139.258 0 1.735.066 1.735-1.447 0-1.414-1.367-1.135-1.367-1.704 0-.283.222-.371.631-.371zm2.415.128h.607l.147-1.07h-.573l.117-.665h-1.148c-.025.024-.677 3.745-.677 4.196 0 .672.38.97.915.965.418-.003.745-.118.86-.15l.143-.968c-.078 0-.194.034-.296.034-.399 0-.443-.212-.417-.367l.322-1.975zm4.809-6.214h-2.048c-.276.369-.534.761-.768 1.145h3.653c-.254-.4-.534-.782-.837-1.145zm15.979 12.878a.595.595 0 00-.056-.074.08.08 0 00-.032-.019.118.118 0 00.078-.034.1.1 0 00.012-.125.09.09 0 00-.048-.036.284.284 0 00-.094-.011h-.13v.372h.061v-.158h.035c.021 0 .038.005.048.014a.334.334 0 01.064.086l.033.059h.075l-.046-.074zm-.136-.134h-.074v-.112h.07c.029 0 .048.002.06.006a.056.056 0 01.025.02.051.051 0 01.01.028.052.052 0 01-.02.042c-.012.01-.036.016-.07.016zM23.524 8.942H18.61c-.314.59-.522 1.035-.581 1.146h5.96c-.135-.394-.29-.775-.466-1.146zm-15.87 1.86l-1.13 3.327-.06-3.327H4.79l-.918 5.421H4.98l.699-4.086.102 4.086h.79l1.475-4.086-.653 4.086h1.175l.905-5.42H7.654zm22.142.907c-.788 0-1.39.25-1.39.25l-.168.982s.499-.201 1.251-.201c.428 0 .74.047.74.392 0 .209-.038.287-.038.287s-.337-.028-.494-.028c-.992 0-2.034.42-2.034 1.687 0 .999.684 1.227 1.108 1.227.809 0 1.159-.52 1.177-.522l-.038.435h1.01l.45-3.135c.003-1.332-1.168-1.374-1.574-1.374zm-.565 3.642c-.357 0-.449-.27-.449-.43 0-.311.17-.686 1.011-.686.196 0 .217.02.25.027.022.191-.122 1.09-.812 1.09zm8.85.373a.313.313 0 00-.13-.129.348.348 0 00-.52.301c0 .06.016.117.047.171a.33.33 0 00.129.13.352.352 0 00.474-.13.338.338 0 000-.344zm-.048.315a.297.297 0 01-.251.146.295.295 0 01-.253-.146.28.28 0 01.001-.287.293.293 0 01.501 0 .286.286 0 01.002.287z"/><path d="M37.897 16.014a.46.46 0 00-.055-.074.084.084 0 00-.032-.02.115.115 0 00.078-.033.096.096 0 00.012-.125.105.105 0 00-.047-.037.289.289 0 00-.095-.011h-.13v.372h.06v-.158h.035c.022 0 .04.004.05.012a.377.377 0 01.063.088l.032.059h.075l-.046-.073zm-.133-.137h-.074v-.113h.068c.03 0 .05.002.061.006a.06.06 0 01.025.02c.007.01.01.018.01.03 0 .016-.007.03-.018.04-.014.013-.038.017-.072.017zm-4.068-4.115c-.514 0-.895.696-.895.696l.102-.64h-1.07l-.715 4.413h1.178c.335-1.885.396-3.414 1.193-3.135.14-.729.275-1.011.428-1.319 0 .001-.072-.014-.221-.014zm2.96-.954l-.248 1.523s-.431-.592-1.108-.592c-1.052 0-1.928 1.258-1.928 2.703 0 .933.467 1.847 1.422 1.847.688 0 1.069-.476 1.069-.476l-.05.406h1.116l.878-5.413-1.151.002zM35.2 15.182c-.413 0-.607-.344-.607-.883 0-.883.4-1.465.905-1.465.412 0 .624.281.624.944 0 .6-.3 1.404-.922 1.404z"/><path d="M40.919 0H1.08C.483 0 0 .48 0 1.073v24.854C0 26.52.483 27 1.081 27H40.92c.598 0 1.081-.48 1.081-1.073V1.073A1.078 1.078 0 0040.919 0zm-2.69 19.606a.322.322 0 01-.129.129.354.354 0 01-.346 0 .344.344 0 01.173-.645c.059 0 .115.015.17.044.056.03.1.072.13.128a.35.35 0 01.002.344zm.78-6.106c0 5.905-4.822 10.694-10.776 10.695a10.783 10.783 0 01-7.235-2.765 10.783 10.783 0 01-7.226 2.762c-5.95 0-10.779-4.789-10.779-10.692 0-5.879 4.791-10.654 10.71-10.693h.069a10.78 10.78 0 017.226 2.763 10.789 10.789 0 017.23-2.765c5.953-.002 10.78 4.785 10.782 10.69-.002.002-.002.002-.002.005z"/><path d="M19.894 20.26c.342.415.703.81 1.102 1.17l.028-.024h.001c.393-.355.76-.737 1.095-1.145h-2.226zm1.468-5.868s.151-.737.151-1.038c0-.75-.376-1.664-1.636-1.664-1.154 0-2.008 1.234-2.008 2.628 0 1.609 1.07 1.99 1.982 1.99.842 0 1.212-.187 1.212-.187l.203-1.097s-.64.28-1.22.28c-1.232 0-1.016-.912-1.016-.912h2.332zm-1.481-1.68c.648 0 .528.721.528.779h-1.274c0-.075.12-.78.746-.78zm6.863-.872c.584 0 1.053.326 1.053.326l.188-1.206s-.695-.279-1.293-.279c-1.324 0-2.613 1.14-2.613 3.282 0 1.42.696 2.357 2.065 2.357.387 0 1.004-.155 1.004-.155l.206-1.242s-.563.28-.95.28c-.814-.002-1.14-.618-1.14-1.28 0-1.344.7-2.082 1.48-2.082zm-8.289 6.175c.187.397.404.776.637 1.145h3.824c.232-.368.441-.75.628-1.145h-5.089zm5.603-6.251c-.513 0-.894.696-.894.696l.103-.64H22.2l-.716 4.413h1.177c.334-1.885.397-3.415 1.193-3.135.14-.73.275-1.012.427-1.32 0 0-.071-.016-.222-.014z"/></symbol><symbol viewBox="0 0 8 14" id="nav_chevron_right" xmlns="http://www.w3.org/2000/svg"><path d="M7.504 7.5l-6.296 6.293a.709.709 0 01-1 0 .705.705 0 010-.998L6.003 7 .208 1.206a.706.706 0 111-1L7.505 6.5a.713.713 0 010 1z"/></symbol><symbol viewBox="0 0 20 20" id="new_m_icon" xmlns="http://www.w3.org/2000/svg"><path d="M19.055 8.56a2.29 2.29 0 01-.682-.802 2.35 2.35 0 01.191-1.08c.187-.585.38-1.189.097-1.678-.287-.495-.913-.631-1.518-.762a2.32 2.32 0 01-1.015-.366 2.32 2.32 0 01-.364-1.015c-.131-.605-.266-1.231-.762-1.518-.49-.283-1.093-.09-1.678.097-.34.147-.71.213-1.08.19a2.29 2.29 0 01-.802-.681C11.022.48 10.587 0 10 0S8.979.48 8.56.945a2.29 2.29 0 01-.802.682c-.37.022-.74-.044-1.08-.191-.584-.187-1.188-.38-1.678-.097-.495.287-.631.913-.762 1.518a2.32 2.32 0 01-.366 1.015 2.32 2.32 0 01-1.015.364c-.605.131-1.231.266-1.518.762-.283.49-.09 1.094.097 1.678.148.34.213.71.19 1.08a2.291 2.291 0 01-.681.802C.48 8.978 0 9.413 0 10s.48 1.021.945 1.442c.286.21.52.485.682.802.022.37-.043.74-.191 1.08-.187.584-.38 1.188-.097 1.678.287.495.913.63 1.518.761.362.04.71.166 1.015.365.2.305.324.653.364 1.015.131.605.266 1.231.762 1.518.49.283 1.093.09 1.678-.097.34-.148.71-.213 1.08-.19.317.161.592.395.802.681.42.465.855.945 1.442.945s1.021-.48 1.442-.945c.21-.286.485-.52.802-.682.37-.022.74.044 1.08.191.584.187 1.188.38 1.678.097.495-.287.63-.913.761-1.518.04-.362.166-.71.365-1.015a2.32 2.32 0 011.015-.364c.605-.131 1.231-.266 1.518-.762.283-.49.09-1.094-.097-1.678a2.35 2.35 0 01-.19-1.08c.161-.317.395-.591.681-.802.465-.42.945-.855.945-1.442s-.48-1.021-.945-1.44zm-.447 2.388c-.39.286-.695.675-.879 1.124-.068.494.001.997.2 1.454.143.447.289.908.155 1.142-.14.24-.619.344-1.082.444-.502.108-1.021.22-1.345.545-.302.39-.491.855-.545 1.346-.1.463-.204.942-.444 1.081-.234.135-.696-.012-1.142-.155a2.716 2.716 0 00-1.454-.2 2.63 2.63 0 00-1.124.879c-.323.357-.657.725-.948.725-.291 0-.625-.368-.948-.725a2.634 2.634 0 00-1.124-.879 1.32 1.32 0 00-.338-.042 3.848 3.848 0 00-1.116.241c-.448.143-.908.288-1.142.155-.24-.14-.344-.619-.444-1.082-.108-.502-.22-1.021-.545-1.345a2.675 2.675 0 00-1.346-.546c-.463-.1-.942-.203-1.081-.443-.135-.234.012-.694.155-1.14a2.72 2.72 0 00.2-1.455 2.63 2.63 0 00-.879-1.124C1.035 10.625.667 10.29.667 10c0-.291.368-.625.726-.948.391-.286.695-.675.879-1.124.069-.494 0-.997-.2-1.454-.143-.447-.288-.908-.155-1.142.14-.24.619-.344 1.082-.444.502-.108 1.021-.22 1.345-.545.303-.39.491-.855.546-1.346.1-.463.203-.942.443-1.081.234-.136.694.012 1.14.155.494.158 1.006.32 1.455.2a2.63 2.63 0 001.124-.879c.323-.357.657-.725.948-.725.291 0 .625.368.948.725.286.39.675.695 1.124.879.494.068.997-.001 1.454-.2.447-.143.908-.289 1.142-.155.24.14.344.619.444 1.082.108.502.22 1.021.545 1.345.39.302.855.491 1.346.545.463.1.942.204 1.081.444.135.234-.012.695-.155 1.142-.199.457-.268.96-.2 1.454.184.449.488.838.879 1.124.357.323.725.657.725.948 0 .291-.368.625-.725.948z"/><path d="M10 4c.184 0 .334-.15.334-.333V3a.333.333 0 00-.667 0v.667c0 .184.15.333.333.333zm-1.962-.031a.333.333 0 00.645-.173l-.173-.644a.333.333 0 10-.644.173l.172.644zm-1.25-.199l-.002-.003a.333.333 0 10-.575.337l.333.578a.333.333 0 10.578-.334l-.334-.577zM5.286 5.758a.333.333 0 10.472-.472l-.472-.471a.333.333 0 10-.471.471l.471.472zm0 8.484l-.472.472a.333.333 0 00.472.471l.471-.471a.333.333 0 00-.47-.472zm1.715.958a.333.333 0 00-.456.118l-.333.578a.334.334 0 00.577.333l.333-.577a.333.333 0 00-.12-.453zm1.447.597a.333.333 0 00-.41.234l-.172.644a.334.334 0 00.644.173l.173-.644a.333.333 0 00-.235-.407zM10 16a.333.333 0 00-.333.333V17a.333.333 0 00.667 0v-.667A.333.333 0 0010 16zm1.961.031a.333.333 0 00-.644.173l.173.644a.333.333 0 10.643-.173l-.172-.644zm1.494-.713l-.002-.004a.333.333 0 00-.575.337l.333.578a.333.333 0 10.578-.333l-.334-.578zm1.259-1.076a.333.333 0 00-.472.472l.472.471a.333.333 0 10.471-.47l-.471-.473zm-.236-8.387a.333.333 0 00.236-.098l.472-.472a.333.333 0 10-.471-.471l-.472.472a.333.333 0 00.235.569zm-1.311-1.007c.12 0 .23-.063.289-.166l.333-.578.003-.004a.333.333 0 00-.58-.33l-.333.578a.333.333 0 00.288.5zm-1.614-.644a.333.333 0 00.408-.236l.173-.643a.333.333 0 10-.644-.173l-.172.644a.333.333 0 00.235.408zM11 12H8.667v-1.666h1.666a.333.333 0 000-.667H8.667V8H11a.333.333 0 000-.667H8.333A.333.333 0 008 7.667v4.667c0 .184.15.333.333.333H11A.333.333 0 1011 12zm-4.587.541a.3.3 0 00.081.07.18.18 0 00.034.022c.043.022.09.033.138.034a.334.334 0 00.153-.042.345.345 0 00.04-.02c.008-.005.012-.014.018-.02a.312.312 0 00.048-.05.262.262 0 00.056-.11.343.343 0 00.013-.066c0-.01.005-.017.005-.027V7.667a.333.333 0 10-.666 0v3.627l-2.729-3.82c-.005-.008-.013-.012-.019-.019a.313.313 0 00-.05-.047.334.334 0 00-.05-.034.344.344 0 00-.059-.021.305.305 0 00-.067-.013c-.009 0-.016-.006-.026-.006a.284.284 0 00-.033.007.313.313 0 00-.129.041.335.335 0 00-.031.014c-.008.006-.011.014-.018.02a.312.312 0 00-.048.05.327.327 0 00-.033.05.32.32 0 00-.022.06.34.34 0 00-.013.066c0 .01-.006.017-.006.026v4.666a.333.333 0 00.667 0V8.707l2.73 3.82c.003.007.01.009.016.014zM16.738 7.34h-.001a.333.333 0 00-.396.256l-.744 3.473-.948-2.841a.333.333 0 00-.633 0l-.946 2.841-.744-3.472a.333.333 0 00-.652.14l1 4.666a.333.333 0 00.307.263.336.336 0 00.334-.228l1.018-3.05 1.018 3.05a.333.333 0 00.316.228h.018a.333.333 0 00.308-.262l1-4.667a.333.333 0 00-.255-.396z"/></symbol><symbol viewBox="0 0 20 20" id="office_m_icon" xmlns="http://www.w3.org/2000/svg"><path d="M19.667 8.667h-.394L18.66 5.6a.333.333 0 00-.327-.267h-4c-.01 0-.02.006-.031.007a.326.326 0 00-.13.04.34.34 0 00-.075.058c-.006.007-.015.01-.021.017-.006.008-.004.01-.007.014a.324.324 0 00-.045.09.364.364 0 00-.017.04l-.614 3.068H8.667v-.334a1 1 0 00-1-1v-.666h2.666a1 1 0 001-1V1a1 1 0 00-1-1h-8a1 1 0 00-1 1v4.667a1 1 0 001 1H5v.666a1 1 0 00-1 1v.334H.333A.333.333 0 000 9v10.667c0 .184.15.333.333.333h1.334c.184 0 .333-.15.333-.333v-2.334h16v2.334c0 .184.15.333.333.333h1.334c.184 0 .333-.15.333-.333V9a.333.333 0 00-.333-.333zM18.06 6l.533 2.667h-3.32L14.74 6h3.32zm-3.765 1.556l.278 1.11h-.5l.222-1.11zM2 1c0-.184.15-.333.333-.333h8c.184 0 .334.149.334.333v3.667H2V1zm0 4.667v-.334h8.667v.334c0 .184-.15.333-.334.333h-8A.333.333 0 012 5.667zm3.667 1H7v.666H5.667v-.666zm-1 1.666C4.667 8.15 4.816 8 5 8h2.667C7.85 8 8 8.15 8 8.333v.334H4.667v-.334zM2 16.667v-6h16v6H2zm17.333 2.666h-.666v-9a.333.333 0 00-.334-.333H1.667a.333.333 0 00-.334.333v9H.667v-10h18.666v10z"/></symbol><symbol viewBox="0 0 42 27" id="paypal_icon" xmlns="http://www.w3.org/2000/svg"><path fill-rule="evenodd" clip-rule="evenodd" d="M0 1a1 1 0 011-1h40a1 1 0 011 1v25a1 1 0 01-1 1H1a1 1 0 01-1-1V1zm9.581 8.414a1.748 1.748 0 00-.642-.692 3.006 3.006 0 00-1.02-.375 8.342 8.342 0 00-1.387-.11l-2.454.002a.615.615 0 00-.564.448l-1.65 7.19c-.06.242.1.446.354.446h1.175a.601.601 0 00.564-.447l.403-1.745a.602.602 0 01.563-.446h.336c1.437-.002 2.55-.295 3.348-.883.804-.588 1.2-1.366 1.2-2.33 0-.422-.07-.776-.226-1.058zm-2.534 2.348c-.355.26-.848.39-1.485.39h-.287c-.256 0-.413-.201-.357-.448l.353-1.526a.595.595 0 01.56-.446l.385-.002c.449 0 .792.077 1.021.228.227.149.341.386.34.7.006.477-.176.844-.53 1.104zm6.1-1.696c.956 0 1.656.125 2.1.375.443.25.67.638.667 1.164l-.021.283-.045.302-.856 3.708a.608.608 0 01-.506.44l-.015.006H13.38l-.004-.005c-.224-.022-.362-.21-.314-.44v-.001l.002-.008.045-.188-.006-.009-.444.293-.481.267-.57.196a3.39 3.39 0 01-.737.068c-.501 0-.92-.139-1.238-.423a1.452 1.452 0 01-.478-1.115c0-.481.112-.891.336-1.23.232-.335.564-.6 1.011-.796.417-.191.918-.33 1.49-.41a19.678 19.678 0 011.733-.189l.17-.104.02-.166a.54.54 0 00-.354-.534c-.24-.1-.6-.15-1.07-.15-.317-.005-.719.06-1.1.147-.276.061-.413.11-.536.152-.055.019-.106.037-.166.055-.09.031-.308.046-.227-.331l.144-.592s.07-.445.517-.543l.064-.014c.163-.036.224-.05.538-.097a9.23 9.23 0 011.421-.11zm.022 4.785l.183-.241c.072-.284.222-.914.238-.995l-.08-.143c-.07.002-.6.062-.87.096a4.313 4.313 0 00-.774.174l-.498.34c-.117.144-.172.334-.172.572l.227.441c.153.086.38.127.67.127.19 0 .396-.044.614-.132l.462-.239zm23.415-4.405c-.446-.25-1.145-.376-2.1-.376a8.94 8.94 0 00-1.42.113 6.097 6.097 0 00-.53.093l-.075.016c-.446.097-.515.544-.515.544l-.143.59c-.081.378.131.36.23.332.063-.019.116-.037.172-.057a4.48 4.48 0 01.525-.151c.379-.086.784-.15 1.103-.148.468 0 .827.051 1.066.152.238.103.354.28.354.533l-.018.165-.167.107c-.674.04-1.156.102-1.735.187-.57.08-1.073.218-1.49.41-.446.197-.782.462-1.012.799-.226.338-.337.747-.337 1.223 0 .456.161.83.481 1.118.32.283.734.425 1.236.425.315-.003.56-.024.736-.07l.568-.193.486-.267.44-.296.007.01-.04.19-.004.003.001.004c-.053.229.087.419.313.44l.001.004h1.09l.018-.006a.601.601 0 00.5-.444l.86-3.702.044-.304.025-.284c.001-.524-.223-.911-.67-1.16zm-1.89 4.169l-.191.243-.458.237a1.663 1.663 0 01-.612.133c-.299 0-.52-.043-.668-.128l-.23-.44c0-.239.056-.426.168-.574.114-.14.288-.254.503-.338.21-.072.47-.13.774-.174.267-.033.796-.096.864-.097l.083.143c-.012.082-.163.709-.234.995zM30.27 8.746c.28.18.5.41.647.695.149.28.222.635.226 1.055 0 .964-.401 1.74-1.195 2.333-.802.586-1.917.882-3.355.882h-.337a.61.61 0 00-.564.446l-.398 1.747a.61.61 0 01-.565.445l-1.176.001c-.25 0-.415-.202-.355-.446l1.653-7.192a.61.61 0 01.56-.447l2.457-.001c.528 0 .992.038 1.382.107.396.072.735.197 1.02.375zm-3.368 3.432c.633 0 1.127-.13 1.482-.385.352-.262.53-.63.527-1.107-.003-.313-.112-.55-.342-.7-.23-.15-.57-.225-1.021-.228l-.381.003a.597.597 0 00-.561.446l-.356 1.524a.352.352 0 00.359.447h.293zm14.087-3.41c.054-.245-.1-.444-.352-.44h-1.053c-.215 0-.41.16-.504.356l-.058.09-.054.233-1.47 6.686-.048.206.001.005c-.048.22.087.386.296.417l.017.025h1.093c.214 0 .415-.162.507-.363l.056-.085 1.573-7.128-.004-.001zm-19.167 1.388s1.13.004 1.409 0c.418-.01-.032.668-.032.667l-4.68 7.916c-.151.248-.484.447-.737.447l-1.217.002c-.252 0-.335-.201-.181-.448l1.04-1.812s.084-.105.01-.696c-.16-1.07-.96-5.618-.96-5.618-.057-.246.099-.448.352-.448l1.052-.002c.323 0 .582.212.64.46l.524 3.155.195.003c.164-.29 1.846-3.177 1.846-3.177.16-.244.486-.449.74-.449z"/></symbol><symbol viewBox="0 0 26 26" id="phone_icon" xmlns="http://www.w3.org/2000/svg"><path d="M5.845 17.047c2.367 2.846 5.217 5.087 8.47 6.673 1.238.59 2.894 1.29 4.739 1.41.114.006.223.01.338.01 1.238 0 2.233-.43 3.043-1.315a.11.11 0 00.02-.025c.289-.35.617-.665.96-1 .234-.226.472-.46.701-.7 1.06-1.111 1.06-2.522-.01-3.597l-2.989-3.007c-.507-.53-1.114-.81-1.75-.81-.637 0-1.248.28-1.77.805l-1.78 1.791c-.165-.095-.334-.18-.493-.26a6.156 6.156 0 01-.547-.3c-1.621-1.036-3.093-2.386-4.5-4.122-.712-.905-1.19-1.666-1.523-2.441.468-.425.905-.87 1.328-1.306.15-.155.303-.31.458-.465.537-.54.825-1.165.825-1.8 0-.636-.283-1.261-.825-1.801L9.058 3.296c-.174-.175-.338-.345-.508-.52-.328-.34-.67-.69-1.01-1.006C7.03 1.265 6.428 1 5.79 1c-.631 0-1.238.265-1.77.775L2.16 3.646a3.854 3.854 0 00-1.139 2.461c-.094 1.196.125 2.466.692 4.002.87 2.376 2.183 4.582 4.132 6.938zM2.235 6.212c.06-.665.313-1.22.79-1.7l1.85-1.861c.289-.28.607-.425.915-.425.304 0 .612.145.896.435.333.31.646.635.984.98.17.175.343.35.517.53L9.67 5.662c.309.31.468.625.468.935 0 .31-.16.626-.468.936-.154.155-.308.315-.462.47-.463.47-.895.915-1.373 1.34l-.025.026c-.412.415-.348.81-.248 1.11l.015.04c.383.926.915 1.806 1.745 2.856 1.492 1.851 3.064 3.287 4.794 4.392.214.14.443.25.657.36.199.1.383.196.547.3l.054.03c.165.086.324.126.483.126.398 0 .656-.255.74-.34l1.86-1.871c.29-.29.603-.445.91-.445.379 0 .687.235.881.445l2.999 3.011c.597.6.592 1.25-.015 1.886-.209.225-.428.44-.662.665-.348.34-.71.69-1.039 1.086-.572.62-1.253.91-2.133.91-.085 0-.174-.005-.259-.01-1.631-.105-3.148-.745-4.287-1.29-3.093-1.506-5.808-3.642-8.061-6.353-1.855-2.246-3.103-4.337-3.929-6.578-.512-1.376-.706-2.481-.626-3.487z"/></symbol><symbol viewBox="0 0 45 52" id="play_icon" xmlns="http://www.w3.org/2000/svg"><path d="M45 26L0 51.98V.02L45 26z"/></symbol><symbol viewBox="0 0 20 22" id="rub_icon" xmlns="http://www.w3.org/2000/svg"><path fill-rule="evenodd" clip-rule="evenodd" d="M5 0h8.5c1.059 0 2.637.281 3.985 1.163C18.887 2.081 20 3.633 20 6c0 2.359-1.102 3.974-2.465 4.99-1.323.986-2.885 1.41-3.944 1.506l-.046.004H7v9H5v-9H0v-2h5V0zm2 10.5h6.452c.775-.078 1.938-.406 2.888-1.114C17.27 8.693 18 7.64 18 6c0-1.632-.72-2.58-1.61-3.163C15.446 2.219 14.275 2 13.5 2H7v8.5z"/><path fill-rule="evenodd" clip-rule="evenodd" d="M15 17H0v-2h15v2z"/></symbol><symbol viewBox="0 0 20 20" id="sale_m_icon" xmlns="http://www.w3.org/2000/svg"><path d="M10.813 8.635a1.171 1.171 0 10-1.657-1.658 1.171 1.171 0 001.656 1.658zM9.707 7.531a.39.39 0 11.553.552.39.39 0 01-.553-.552zm-.552 3.866a1.172 1.172 0 101.656 1.658 1.172 1.172 0 00-1.656-1.658zm1.105 1.105a.39.39 0 11-.553-.552.39.39 0 01.553.552zm-3.421-1.856a.39.39 0 00.46.306l5.523-1.105a.39.39 0 00-.153-.766l-5.524 1.105a.39.39 0 00-.306.46z"/><path d="M11.875 2.21a.39.39 0 00-.276.114L7.498 6.425a.39.39 0 00.552.553l3.825-3.825 4.972 4.972-8.77 8.77-4.971-4.972L5.84 9.188a.39.39 0 10-.553-.553l-3.011 3.011a.39.39 0 000 .553L7.8 17.723a.39.39 0 00.553 0l9.322-9.322a.39.39 0 000-.553l-5.524-5.524a.39.39 0 00-.277-.114z"/><path d="M19.333.115L17.656 1.79a2.76 2.76 0 00-3.299-.03L12.984.347a1.171 1.171 0 00-1.662-.003L.343 11.37a1.172 1.172 0 000 1.658l1.55 1.549a2.776 2.776 0 003.53 3.53l1.55 1.55c.457.457 1.2.457 1.656 0l11.028-10.98a1.17 1.17 0 000-1.657l-.004-.004-1.413-1.373a2.755 2.755 0 00-.031-3.3L19.885.668a.39.39 0 10-.552-.552zM17.428 5.39a.392.392 0 00.003.556l1.675 1.627a.39.39 0 01-.001.55L8.077 19.104a.391.391 0 01-.552 0l-1.733-1.732a.39.39 0 00-.442-.078 1.989 1.989 0 01-2.244-.4 1.989 1.989 0 01-.4-2.244.39.39 0 00-.078-.442L.896 12.475a.391.391 0 010-.553L11.876.896a.39.39 0 01.55-.002l1.627 1.674a.39.39 0 00.556.004c.669-.668 1.716-.74 2.487-.22l-.573.572A1.173 1.173 0 0015.19 4.81a1.172 1.172 0 001.887-1.334l.573-.573c.515.762.456 1.81-.222 2.488zm-1.133-1.686a.39.39 0 11-.552.553.39.39 0 01.552-.553z"/></symbol><symbol viewBox="0 0 33 33" id="search_icon" xmlns="http://www.w3.org/2000/svg"><path d="M32.714 31.316l-8.02-8.02a14.013 14.013 0 003.454-9.226C28.148 6.307 21.834 0 14.078 0 6.315 0 .008 6.314.008 14.07s6.314 14.07 14.07 14.07c3.527 0 6.753-1.302 9.227-3.453l8.019 8.02c.19.19.446.292.695.292a.99.99 0 00.695-1.683zM1.976 14.07c0-6.673 5.43-12.094 12.095-12.094 6.673 0 12.094 5.429 12.094 12.094 0 6.666-5.421 12.102-12.094 12.102-6.666 0-12.095-5.429-12.095-12.102z"/></symbol><symbol viewBox="0 0 29 29" id="share_icon" xmlns="http://www.w3.org/2000/svg"><path d="M28.746 8.433L20.892.277a.907.907 0 00-1.559.63v3.927h-.302c-6.496 0-11.781 5.285-11.781 11.78v1.813c0 .42.296.771.706.867a.81.81 0 00.199.024c.342 0 .67-.2.828-.516a9.912 9.912 0 018.915-5.51h1.435v3.927a.904.904 0 001.559.628l7.854-8.156a.906.906 0 000-1.258z"/><path d="M25.375 29H3.625A3.63 3.63 0 010 25.375V8.459a3.63 3.63 0 013.625-3.625H7.25a1.207 1.207 0 110 2.416H3.625a1.21 1.21 0 00-1.208 1.209v16.916c0 .667.54 1.209 1.208 1.209h21.75a1.21 1.21 0 001.208-1.209v-9.666a1.207 1.207 0 112.417 0v9.666A3.63 3.63 0 0125.375 29z"/></symbol><symbol viewBox="0 0 30 30" id="social_icon" xmlns="http://www.w3.org/2000/svg"><path fill-rule="evenodd" clip-rule="evenodd" d="M3 0a3 3 0 00-3 3v24a3 3 0 003 3h24a3 3 0 003-3V3a3 3 0 00-3-3H3zm3.692 7.141l8.654-5.987v9.696L24 4.863v9.272l-8.716-3.091-8.592 3.09V7.142zm0 6.994l8.592 4.327L24 14.135v8.23l-8.654 5.987v-9.697l-8.654 5.988V14.135z"/></symbol><symbol viewBox="0 0 22 20" id="spa_m_icon" xmlns="http://www.w3.org/2000/svg"><path d="M22 11.5c0-.71-.265-1.35-.687-1.793v-7.44a1.17 1.17 0 00.356-.84v-.254C21.669.526 21.142 0 20.496 0h-.985c-.646 0-1.172.526-1.172 1.173v.254c0 .365.168.692.43.907l-.329.896H3.56l-.33-.896a1.17 1.17 0 00.432-.907v-.254C3.662.526 3.135 0 2.489 0h-.985C.857 0 .331.526.331 1.173v.254c0 .329.137.627.356.84v7.44C.265 10.15 0 10.79 0 11.499v7.338c0 .458.372.83.83.83h.617a.835.835 0 00.669-.338.817.817 0 00.124-.733.383.383 0 01.041-.348c.093-.144.27-.28.456-.423.375-.288.867-.666 1.01-1.381H9a.43.43 0 000-.86H.86v-1.35h20.28v1.35H8.965a.43.43 0 000 .86h9.289c.143.715.635 1.093 1.01 1.38.186.144.363.28.456.424a.38.38 0 01.04.348.816.816 0 00.125.733.834.834 0 00.67.338h.616a.83.83 0 00.83-.83V11.5zm-1.995-2.42a1.878 1.878 0 00-.097-.003h-.837c0-.816-.13-1.475-.218-1.825a.052.052 0 01.005-.035l.008-.017a.91.91 0 00-.144-1.016.91.91 0 00-.998-.242.055.055 0 01-.043-.004c-.36-.167-1.153-.449-2.407-.449-1.255 0-2.046.282-2.407.45a.056.056 0 01-.043.002.91.91 0 00-1 .241.908.908 0 00-.146 1.012l.01.02.001.004a.05.05 0 01.004.035 7.658 7.658 0 00-.218 1.824h-.95c0-.816-.13-1.475-.218-1.825a.051.051 0 01.004-.035l.009-.018a.91.91 0 00-.144-1.015.91.91 0 00-.998-.242.056.056 0 01-.043-.004c-.36-.168-1.152-.45-2.407-.45-1.255 0-2.046.282-2.407.45a.057.057 0 01-.042.004l-.004-.002a.91.91 0 00-.997.243.91.91 0 00-.142 1.018l.007.015a.054.054 0 01.004.037 7.655 7.655 0 00-.218 1.824h-.837c-.184 0-.369.028-.545.082V5.802c0-.944.768-1.713 1.713-1.713h15.48c.708 0 1.36.457 1.607 1.12.07.19.106.391.106.593v3.359a1.861 1.861 0 00-.448-.08zM3.914 6.837l-.008-.015c-.005-.011-.016-.034.009-.061.022-.025.043-.02.056-.016l.005.002a.92.92 0 00.709-.029c.238-.11.913-.369 2.043-.369 1.13 0 1.806.258 2.042.369a.91.91 0 00.71.03c.012-.005.035-.014.06.014.024.027.013.05.008.061l-.008.017a.91.91 0 00-.067.623c.063.25.192.857.193 1.615H3.788c.001-.758.13-1.365.193-1.616a.918.918 0 00-.067-.625zm8.548.005l-.01-.02c-.005-.011-.016-.034.009-.061.024-.027.047-.02.059-.015l.008.003a.92.92 0 00.703-.03c.238-.112.913-.37 2.043-.37 1.13 0 1.806.258 2.042.369a.91.91 0 00.71.03c.012-.005.035-.014.06.014.024.027.013.05.008.061l-.008.017a.91.91 0 00-.067.623c.063.25.192.856.193 1.615h-5.878c.001-.758.13-1.365.193-1.616a.913.913 0 00-.065-.62zM1.547 3.885V2.599h.866l.256.7a2.58 2.58 0 00-1.122.586zm17.784-.586l.257-.7h.865v1.286a2.589 2.589 0 00-1.122-.586zm-.133-2.126c0-.173.14-.314.313-.314h.985c.173 0 .313.141.313.314v.254a.314.314 0 01-.31.313h-.992a.314.314 0 01-.31-.313v-.254zm-18.007 0c0-.173.14-.314.313-.314h.985c.173 0 .313.141.313.314v.254a.314.314 0 01-.31.313H1.5a.314.314 0 01-.31-.313v-.254zm1.023 15.97c-.237.182-.48.37-.654.638a1.23 1.23 0 00-.153 1.027H.859v-2.364h1.996c-.117.296-.358.481-.641.7zM.859 13.375V11.5c0-.698.438-1.562 1.233-1.562h17.816c.795 0 1.233.864 1.233 1.561v1.876H.859zm20.282 5.433h-.548c.1-.363.048-.717-.153-1.027-.173-.268-.417-.456-.654-.638-.283-.218-.524-.403-.64-.7h1.995v2.365z"/></symbol><symbol viewBox="0 0 85 77" id="studio_icon" xmlns="http://www.w3.org/2000/svg"><path d="M60.337 26.893H24.423c-1.442 0-2.523 1.142-2.523 2.664v44.78c0 1.014.48 1.775 1.322 2.282.36.254.84.381 1.2.381.481 0 .841-.127 1.322-.38l8.408-5.328V38.944c0-1.015.6-1.903 1.441-2.03.6-.127 1.081 0 1.562.38.48.382.72.889.72 1.523v27.4c0 .508.24 1.015.721 1.396.48.254.961.254 1.442 0l9.849-6.216V38.944c0-1.015.6-1.903 1.441-2.03.6-.127 1.081 0 1.562.38.48.382.72.889.72 1.523v17.379c0 .507.24 1.142.721 1.395.48.254 1.081.254 1.441 0l5.766-3.678c.72-.508 1.201-1.396 1.201-2.284V29.43c.12-1.395-.96-2.537-2.402-2.537zm-5.886 8.5c-.96-.889-2.282-1.143-3.603-.889-1.922.38-3.363 2.284-3.363 4.567V60l-7.207 4.567v-25.75c0-1.396-.6-2.665-1.562-3.426-.96-.888-2.282-1.142-3.603-.888-1.922.38-3.363 2.284-3.363 4.567v30.825l-7.327 4.567s-.12 0-.24-.127v-44.78c0-.126 0-.126.12-.126h35.914c.12 0 .12 0 .12.127v22.326l-4.445 2.79V38.945c.12-1.522-.36-2.79-1.44-3.552z"/><path d="M84.72 26.259c-.72-3.172-4.084-8.753-8.288-8.753H8.568c-4.204 0-7.688 5.581-8.288 8.753-1.321 6.089 2.162 12.178 7.807 13.7.72.127 1.442.253 2.162.253 1.562 0 3.123-.507 4.444-1.268 2.042-1.269 3.364-3.298 3.964-5.708.961-4.06-1.441-8.246-5.285-9.388-1.561-.38-3.123-.126-4.564.762-1.441.887-2.402 2.283-2.763 3.932-.6 2.918 1.081 5.835 3.724 6.47 1.08.253 2.282.126 3.243-.508.96-.634 1.681-1.649 1.922-2.79.48-2.03-.721-4.187-2.763-4.694h-.48c-1.081 0-2.042 1.015-2.042 2.156 0 1.142.96 2.157 2.042 2.157.12 0 .36 0 .48-.127 0 .254 0 .761-.6 1.268-.36.381-1.082.254-1.322.127-1.441-.38-2.282-1.902-1.922-3.425.24-1.015.841-1.902 1.682-2.41.84-.507 1.802-.634 2.763-.38 2.642.634 4.204 3.551 3.603 6.342-.36 1.776-1.441 3.298-2.883 4.186-1.441.888-3.123 1.142-4.804.761-4.444-1.14-7.088-5.962-6.126-10.655.6-2.41 3.243-6.85 6.006-6.85h67.864c2.763 0 5.405 4.44 6.006 6.85 1.08 4.693-1.682 9.514-6.126 10.655-1.682.381-3.363.127-4.805-.76-1.441-.889-2.522-2.41-2.882-4.187-.601-2.79.96-5.581 3.603-6.343.96-.253 1.922-.126 2.763.381.84.508 1.441 1.395 1.681 2.41.36 1.523-.6 3.045-1.922 3.425-.24.127-.96.254-1.32-.127-.481-.507-.601-1.014-.601-1.268.12 0 .36.127.48.127 1.081 0 2.042-1.015 2.042-2.157 0-1.141-.961-2.156-2.042-2.156h-.48c-1.922.507-3.123 2.664-2.643 4.693.24 1.142.961 2.157 1.922 2.791.96.634 2.162.761 3.243.508 2.642-.762 4.324-3.68 3.724-6.47-.36-1.65-1.322-3.045-2.763-3.932-1.321-.888-3.003-1.142-4.564-.762-3.844 1.015-6.246 5.201-5.285 9.388.6 2.41 1.921 4.44 3.963 5.708a8.057 8.057 0 006.607 1.015c5.525-1.522 9.008-7.611 7.687-13.7zM8.808 13.066c.36.38.84.634 1.321.634H74.63c.48 0 .961-.253 1.322-.634l6.125-6.723c.36-.38.48-.888.48-1.396V1.903c0-1.142-.84-1.903-1.8-1.903H4.002c-1.08 0-1.801.888-1.801 1.903v3.044c0 .508.24 1.015.48 1.396l6.126 6.723zM4.604 2.537h75.672V4.82l-5.766 6.47H10.49L4.723 4.82V2.537h-.12z"/></symbol><symbol viewBox="0 0 306 153" id="vector_line" xmlns="http://www.w3.org/2000/svg"><path d="M194.855-40L6.434 153l-1.5-1.361L194.856-40z"/><path d="M194.855-40L6.434 153l-1.5-1.361L194.856-40zM189.92-40L1.499 153 0 151.639 189.92-40z"/><path d="M189.92-40L1.499 153 0 151.639 189.92-40zM200.024-40L11.604 153l-1.5-1.361L200.024-40z"/><path d="M200.024-40L11.604 153l-1.5-1.361L200.024-40zM210.129-40L21.707 153l-1.499-1.361L210.13-40z"/><path d="M210.129-40L21.707 153l-1.499-1.361L210.13-40zM205.429-40L17.008 153l-1.5-1.361L205.43-40z"/><path d="M205.429-40L17.008 153l-1.5-1.361L205.43-40zM215.298-40L26.877 153l-1.5-1.361L215.299-40z"/><path d="M215.298-40L26.877 153l-1.5-1.361L215.299-40zM225.167-40L36.746 153l-1.5-1.361L225.168-40z"/><path d="M225.167-40L36.746 153l-1.5-1.361L225.168-40zM220.233-40L31.811 153l-1.499-1.361L220.233-40z"/><path d="M220.233-40L31.811 153l-1.499-1.361L220.233-40zM230.337-40L41.915 153l-1.499-1.361L230.337-40z"/><path d="M230.337-40L41.915 153l-1.499-1.361L230.337-40zM239.971-40L51.55 153l-1.5-1.361L239.972-40z"/><path d="M239.971-40L51.55 153l-1.5-1.361L239.972-40zM235.036-40L46.615 153l-1.499-1.361L235.036-40z"/><path d="M235.036-40L46.615 153l-1.499-1.361L235.036-40zM245.14-40L56.72 153l-1.5-1.361L245.14-40z"/><path d="M245.14-40L56.72 153l-1.5-1.361L245.14-40zM255.245-40L66.823 153l-1.499-1.361L255.245-40z"/><path d="M255.245-40L66.823 153l-1.499-1.361L255.245-40zM250.545-40L62.124 153l-1.5-1.361L250.546-40z"/><path d="M250.545-40L62.124 153l-1.5-1.361L250.546-40zM260.414-40L71.993 153l-1.5-1.361L260.415-40z"/><path d="M260.414-40L71.993 153l-1.5-1.361L260.415-40zM270.283-40L81.862 153l-1.5-1.361L270.284-40z"/><path d="M270.283-40L81.862 153l-1.5-1.361L270.284-40zM265.349-40L76.927 153l-1.499-1.361L265.35-40z"/><path d="M265.349-40L76.927 153l-1.499-1.361L265.35-40zM275.453-40L87.031 153l-1.499-1.361L275.453-40z"/><path d="M275.453-40L87.031 153l-1.499-1.361L275.453-40zM285.557-40L97.135 153l-1.499-1.361L285.558-40z"/><path d="M285.557-40L97.135 153l-1.499-1.361L285.558-40zM280.622-40L92.201 153l-1.5-1.361L280.623-40z"/><path d="M280.622-40L92.201 153l-1.5-1.361L280.623-40zM290.726-40L102.305 153l-1.499-1.361L290.726-40z"/><path d="M290.726-40L102.305 153l-1.499-1.361L290.726-40zM300.83-40L112.409 153l-1.499-1.361L300.83-40z"/><path d="M300.83-40L112.409 153l-1.499-1.361L300.83-40zM296.131-40L107.71 153l-1.499-1.361L296.131-40z"/><path d="M296.131-40L107.71 153l-1.499-1.361L296.131-40zM306-40L117.579 153l-1.499-1.361L306-40z"/><path d="M306-40L117.579 153l-1.499-1.361L306-40z"/><defs><linearGradient id="blpaint0_linear" x1="153" y1="30.301" x2="153" y2="153" gradientUnits="userSpaceOnUse"><stop stop-color="#FCF8F3"/><stop offset="1" stop-color="#fff" stop-opacity="0"/></linearGradient><linearGradient id="blpaint1_linear" x1="153" y1="30.301" x2="153" y2="153" gradientUnits="userSpaceOnUse"><stop stop-color="#FCF8F3"/><stop offset="1" stop-color="#fff" stop-opacity="0"/></linearGradient><linearGradient id="blpaint2_linear" x1="153" y1="30.301" x2="153" y2="153" gradientUnits="userSpaceOnUse"><stop stop-color="#FCF8F3"/><stop offset="1" stop-color="#fff" stop-opacity="0"/></linearGradient><linearGradient id="blpaint3_linear" x1="153" y1="30.301" x2="153" y2="153" gradientUnits="userSpaceOnUse"><stop stop-color="#FCF8F3"/><stop offset="1" stop-color="#fff" stop-opacity="0"/></linearGradient><linearGradient id="blpaint4_linear" x1="153" y1="30.301" x2="153" y2="153" gradientUnits="userSpaceOnUse"><stop stop-color="#FCF8F3"/><stop offset="1" stop-color="#fff" stop-opacity="0"/></linearGradient><linearGradient id="blpaint5_linear" x1="153" y1="30.301" x2="153" y2="153" gradientUnits="userSpaceOnUse"><stop stop-color="#FCF8F3"/><stop offset="1" stop-color="#fff" stop-opacity="0"/></linearGradient><linearGradient id="blpaint6_linear" x1="153" y1="30.301" x2="153" y2="153" gradientUnits="userSpaceOnUse"><stop stop-color="#FCF8F3"/><stop offset="1" stop-color="#fff" stop-opacity="0"/></linearGradient><linearGradient id="blpaint7_linear" x1="153" y1="30.301" x2="153" y2="153" gradientUnits="userSpaceOnUse"><stop stop-color="#FCF8F3"/><stop offset="1" stop-color="#fff" stop-opacity="0"/></linearGradient><linearGradient id="blpaint8_linear" x1="153" y1="30.301" x2="153" y2="153" gradientUnits="userSpaceOnUse"><stop stop-color="#FCF8F3"/><stop offset="1" stop-color="#fff" stop-opacity="0"/></linearGradient><linearGradient id="blpaint9_linear" x1="153" y1="30.301" x2="153" y2="153" gradientUnits="userSpaceOnUse"><stop stop-color="#FCF8F3"/><stop offset="1" stop-color="#fff" stop-opacity="0"/></linearGradient><linearGradient id="blpaint10_linear" x1="153" y1="30.301" x2="153" y2="153" gradientUnits="userSpaceOnUse"><stop stop-color="#FCF8F3"/><stop offset="1" stop-color="#fff" stop-opacity="0"/></linearGradient><linearGradient id="blpaint11_linear" x1="153" y1="30.301" x2="153" y2="153" gradientUnits="userSpaceOnUse"><stop stop-color="#FCF8F3"/><stop offset="1" stop-color="#fff" stop-opacity="0"/></linearGradient><linearGradient id="blpaint12_linear" x1="153" y1="30.301" x2="153" y2="153" gradientUnits="userSpaceOnUse"><stop stop-color="#FCF8F3"/><stop offset="1" stop-color="#fff" stop-opacity="0"/></linearGradient><linearGradient id="blpaint13_linear" x1="153" y1="30.301" x2="153" y2="153" gradientUnits="userSpaceOnUse"><stop stop-color="#FCF8F3"/><stop offset="1" stop-color="#fff" stop-opacity="0"/></linearGradient><linearGradient id="blpaint14_linear" x1="153" y1="30.301" x2="153" y2="153" gradientUnits="userSpaceOnUse"><stop stop-color="#FCF8F3"/><stop offset="1" stop-color="#fff" stop-opacity="0"/></linearGradient><linearGradient id="blpaint15_linear" x1="153" y1="30.301" x2="153" y2="153" gradientUnits="userSpaceOnUse"><stop stop-color="#FCF8F3"/><stop offset="1" stop-color="#fff" stop-opacity="0"/></linearGradient><linearGradient id="blpaint16_linear" x1="153" y1="30.301" x2="153" y2="153" gradientUnits="userSpaceOnUse"><stop stop-color="#FCF8F3"/><stop offset="1" stop-color="#fff" stop-opacity="0"/></linearGradient><linearGradient id="blpaint17_linear" x1="153" y1="30.301" x2="153" y2="153" gradientUnits="userSpaceOnUse"><stop stop-color="#FCF8F3"/><stop offset="1" stop-color="#fff" stop-opacity="0"/></linearGradient><linearGradient id="blpaint18_linear" x1="153" y1="30.301" x2="153" y2="153" gradientUnits="userSpaceOnUse"><stop stop-color="#FCF8F3"/><stop offset="1" stop-color="#fff" stop-opacity="0"/></linearGradient><linearGradient id="blpaint19_linear" x1="153" y1="30.301" x2="153" y2="153" gradientUnits="userSpaceOnUse"><stop stop-color="#FCF8F3"/><stop offset="1" stop-color="#fff" stop-opacity="0"/></linearGradient><linearGradient id="blpaint20_linear" x1="153" y1="30.301" x2="153" y2="153" gradientUnits="userSpaceOnUse"><stop stop-color="#FCF8F3"/><stop offset="1" stop-color="#fff" stop-opacity="0"/></linearGradient><linearGradient id="blpaint21_linear" x1="153" y1="30.301" x2="153" y2="153" gradientUnits="userSpaceOnUse"><stop stop-color="#FCF8F3"/><stop offset="1" stop-color="#fff" stop-opacity="0"/></linearGradient><linearGradient id="blpaint22_linear" x1="153" y1="30.301" x2="153" y2="153" gradientUnits="userSpaceOnUse"><stop stop-color="#FCF8F3"/><stop offset="1" stop-color="#fff" stop-opacity="0"/></linearGradient><linearGradient id="blpaint23_linear" x1="153" y1="30.301" x2="153" y2="153" gradientUnits="userSpaceOnUse"><stop stop-color="#FCF8F3"/><stop offset="1" stop-color="#fff" stop-opacity="0"/></linearGradient></defs></symbol><symbol viewBox="0 0 538 47" id="vector_logo" xmlns="http://www.w3.org/2000/svg"><path d="M166.684 16.415h-23.687c-.951 0-1.664.697-1.664 1.626v27.333c0 .62.317 1.084.871 1.394.238.155.555.232.793.232.317 0 .554-.077.871-.232l5.546-3.252V23.77c0-.62.396-1.161.95-1.239.396-.077.713 0 1.03.232.317.233.476.542.476.93v16.724c0 .31.158.62.475.852.317.155.634.155.951 0l6.496-3.794V23.771c0-.62.396-1.161.95-1.239.397-.077.713 0 1.03.232.317.233.476.542.476.93V34.3c0 .31.158.697.475.852.317.155.713.155.951 0l3.802-2.245c.476-.31.793-.852.793-1.394v-13.55c.079-.852-.634-1.549-1.585-1.549zm-3.882 5.188c-.634-.542-1.505-.697-2.376-.542-1.268.232-2.219 1.394-2.219 2.787v12.776l-4.753 2.788V23.694c0-.852-.396-1.627-1.03-2.091-.634-.542-1.505-.697-2.377-.542-1.267.232-2.218 1.394-2.218 2.787v18.816l-4.832 2.787s-.08 0-.159-.077V18.041c0-.077 0-.077.079-.077h23.688c.079 0 .079 0 .079.077V31.67l-2.931 1.703v-9.601c.079-.93-.238-1.704-.951-2.168z"/><path d="M182.766 16.028c-.475-1.936-2.693-5.343-5.466-5.343h-44.761c-2.773 0-5.07 3.407-5.466 5.343-.872 3.717 1.426 7.433 5.149 8.362.476.078.951.155 1.426.155 1.03 0 2.06-.31 2.932-.774 1.346-.774 2.218-2.013 2.614-3.484.634-2.478-.951-5.033-3.486-5.73-1.03-.232-2.06-.078-3.01.464-.951.542-1.585 1.394-1.822 2.4-.397 1.782.713 3.563 2.455 3.95.713.155 1.506.077 2.139-.31.634-.387 1.11-1.007 1.268-1.703.317-1.24-.475-2.556-1.822-2.865h-.317c-.713 0-1.347.619-1.347 1.316 0 .697.634 1.316 1.347 1.316.079 0 .238 0 .317-.077 0 .155 0 .464-.396.774-.238.232-.713.155-.872.078a1.705 1.705 0 01-1.267-2.091 2.342 2.342 0 011.109-1.471 2.476 2.476 0 011.822-.233c1.743.388 2.773 2.168 2.377 3.872a3.944 3.944 0 01-1.902 2.555c-.95.542-2.059.697-3.169.465-2.931-.697-4.674-3.64-4.04-6.504.396-1.472 2.139-4.182 3.961-4.182H177.3c1.822 0 3.565 2.71 3.961 4.182.713 2.865-1.109 5.807-4.04 6.504-1.109.232-2.218.077-3.169-.465a3.944 3.944 0 01-1.902-2.555c-.396-1.704.634-3.407 2.377-3.872a2.476 2.476 0 011.822.233c.555.31.951.851 1.109 1.47.238.93-.396 1.86-1.267 2.091-.159.078-.634.155-.872-.077-.316-.31-.396-.62-.396-.774.08 0 .238.077.317.077.713 0 1.347-.62 1.347-1.316 0-.697-.634-1.316-1.347-1.316h-.317c-1.267.31-2.059 1.626-1.743 2.865.159.696.634 1.316 1.268 1.703s1.426.465 2.139.31c1.743-.465 2.852-2.246 2.456-3.95-.238-1.006-.872-1.858-1.822-2.4-.872-.542-1.981-.697-3.011-.464-2.535.62-4.119 3.175-3.486 5.73.397 1.47 1.268 2.71 2.615 3.484 1.267.774 2.852 1.007 4.357.62 3.644-.93 5.942-4.646 5.07-8.363zm-50.068-8.053c.237.233.554.387.871.387h42.543c.317 0 .633-.154.871-.387l4.04-4.103c.238-.233.317-.542.317-.852V1.16c0-.696-.554-1.161-1.188-1.161h-50.623c-.713 0-1.189.542-1.189 1.161v1.86c0 .31.159.62.317.852l4.041 4.103zm-2.773-6.426h49.91v1.393l-3.803 3.95h-42.225l-3.803-3.95V1.55h-.079zM0 9.446V7.898h14.894v1.548l-6.972.542h-.95L0 9.446zm7.922 33.837l6.972.542v1.549H0v-1.549l6.972-.542h.95zm-2.06-18.118c0-5.807 0-11.537-.158-17.267h3.407c-.159 5.652-.159 11.46-.159 17.267v3.02c0 5.807 0 11.537.159 17.266H5.704c.158-5.652.158-11.46.158-17.267v-3.02zM20.994 9.756l1.505-1.858-1.347 9.446h-2.139l.555-9.446h30.738l.555 9.446h-2.14l-1.346-9.446 1.505 1.858H20.994zm14.34 33.527l7.525.542v1.549H26.856v-1.549l7.527-.542h.95zm-1.981-18.118c0-5.807 0-11.537-.159-17.267h3.407c-.159 5.652-.159 11.46-.159 17.267v3.02c0 5.807 0 11.537.159 17.266h-3.407c.159-5.652.159-11.46.159-17.267v-3.02zm19.092 18.738l5.229-.542h.95l5.863.542v1.548H52.445v-1.548zM69.32 7.51h2.06l13.07 37.94h-3.248L69.24 10.143l1.11-.31-11.884 35.618h-2.06L69.32 7.511zm-6.893 23.074h15.686l.634 1.703H61.794l.633-1.703zM74.47 43.903l6.972-.542h.95l6.734.542v1.548H74.47v-1.548zM92.373 9.446V7.898h14.894v1.548l-6.971.542h-.951l-6.972-.542zm7.447 33.837v2.168h-7.447v-1.548l6.972-.542h.475v-.078zM98.157 7.898h3.406c-.158 5.73-.158 11.537-.158 18.506v2.942c0 4.646 0 10.453.158 16.105h-3.406c.158-5.73.158-11.537.158-17.267v-3.02c0-5.806 0-11.614-.158-17.266zm22.103 27.875l-.555 9.678H99.82v-1.858h18.38l-1.743 1.858 1.585-9.678h2.218zm101.801 5.42v1.78l-1.981.465 1.188-7.975h2.219l-.238 7.898c-3.723 2.09-7.288 2.865-11.329 2.865-11.249 0-18.776-7.976-18.776-19.513 0-11.46 7.843-19.59 18.855-19.59 3.962 0 7.289.775 10.854 2.865l.238 7.898h-2.219l-1.188-8.13 2.139.62v2.013c-3.248-2.4-5.862-3.407-9.427-3.407-9.19 0-15.687 6.736-15.687 17.731 0 11.15 6.417 17.654 15.29 17.654 3.565 0 6.893-.851 10.062-3.174zm41.275-14.48c0 12.002-7.685 19.513-16.875 19.513-9.19 0-16.953-7.356-16.953-19.513 0-12.001 7.763-19.59 16.953-19.59 9.111 0 16.875 7.356 16.875 19.59zm-16.875 17.654c8.715 0 13.389-8.362 13.389-17.654 0-9.369-4.674-17.731-13.389-17.731-8.714 0-13.388 8.362-13.388 17.731 0 9.292 4.674 17.654 13.388 17.654zm23.054-34.921V7.898h14.894v1.548l-6.972.542h-.95l-6.972-.542zm7.447 33.837v2.168h-7.447v-1.548l6.972-.542h.475v-.078zm-1.664-35.385h3.407c-.159 5.73-.159 11.537-.159 18.506v2.942c0 4.646 0 10.453.159 16.105h-3.407c.159-5.73.159-11.537.159-17.267v-3.02c0-5.806 0-11.614-.159-17.266zm22.103 27.875l-.554 9.678h-19.885v-1.858h18.379l-1.742 1.858 1.584-9.678h2.218zm5.071-26.327V7.898h14.893v1.548l-6.971.542h-.951l-6.971-.542zm7.446 33.837v2.168h-7.446v-1.548l6.971-.542h.475v-.078zm-1.742-35.385h3.406c-.158 5.73-.158 11.537-.158 18.506v2.942c0 4.646 0 10.453.158 16.105h-3.406c.158-5.73.158-11.537.158-17.267v-3.02c0-5.806 0-11.614-.158-17.266zm22.182 27.875l-.555 9.678h-19.885v-1.858h18.38l-1.743 1.858 1.585-9.678h2.218zm4.991-26.327V7.898h7.447v2.168h-.476l-6.971-.62zm7.447 33.837v2.168h-7.447v-1.548l6.971-.542h.476v-.078zm-1.505-18.118c0-5.807 0-11.537-.159-17.267h3.407c-.159 5.652-.159 11.46-.159 17.964v1.084c0 7.046 0 12.853.159 18.583h-3.407c.159-5.653.159-11.46.159-17.267v-3.097zm18.696-17.267l1.505 1.858h-18.696V7.898h20.122l.476 9.137h-2.06l-1.347-9.137zm-4.436 19.357h-12.755v-1.78h12.755v1.78zm8.873 9.137l-.476 9.137h-21.073V43.67h19.647l-1.505 1.859 1.347-9.137h2.06zm-9.903-10.608l.713-5.652h1.663v12.543h-1.663l-.713-5.73v-1.16zm44.444 15.409v1.78l-1.981.465 1.188-7.975h2.219l-.238 7.898c-3.724 2.09-7.289 2.865-11.329 2.865-11.25 0-18.776-7.976-18.776-19.513 0-11.46 7.843-19.59 18.855-19.59 3.961 0 7.289.775 10.854 2.865l.237 7.898h-2.218l-1.188-8.13 2.139.62v2.013c-3.248-2.4-5.863-3.407-9.428-3.407-9.189 0-15.686 6.736-15.686 17.731 0 11.15 6.417 17.654 15.29 17.654 3.486 0 6.813-.851 10.062-3.174zm7.288-31.437l1.505-1.858-1.426 9.446h-2.139l.555-9.446h30.738l.555 9.446h-2.139l-1.426-9.446 1.505 1.858h-27.728zm14.418 33.527l7.527.542v1.549h-16.003v-1.549l7.526-.542h.95zm-2.059-18.118c0-5.807 0-11.537-.159-17.267h3.407c-.159 5.652-.159 11.46-.159 17.267v3.02c0 5.807 0 11.537.159 17.266h-3.407c.159-5.652.159-11.46.159-17.267v-3.02zm21.627-15.719V7.898h14.894v1.548l-6.971.542h-.951l-6.972-.542zm7.923 33.837l6.971.542v1.549h-14.894v-1.549l6.972-.542h.951zm-2.06-18.118c0-5.807 0-11.537-.159-17.267h3.407c-.158 5.652-.158 11.46-.158 17.267v3.02c0 5.807 0 11.537.158 17.266h-3.407c.159-5.652.159-11.46.159-17.267v-3.02zm49.039 1.548c0 12.002-7.685 19.513-16.875 19.513-9.19 0-16.953-7.356-16.953-19.513 0-12.001 7.763-19.59 16.953-19.59 9.111 0 16.875 7.356 16.875 19.59zm-16.875 17.654c8.715 0 13.389-8.362 13.389-17.654 0-9.369-4.674-17.731-13.389-17.731-8.714 0-13.388 8.362-13.388 17.731 0 9.292 4.674 17.654 13.388 17.654zM505.123 9.06l2.455.928-6.971-.542V7.898h7.447l24.717 34.92v3.02h-1.426L505.123 9.06zm-4.199 34.843l5.704-.542h.95l6.655.542v1.548h-13.309v-1.548zm4.991-36.005l1.98 1.703v35.85h-1.98V7.898zm18.776 0H538v1.548l-5.625.542h-.95l-6.734-.542V7.898zm6.179 0h1.981v37.94l-1.981-1.935V7.898z"/></symbol><symbol viewBox="0 0 41 27" id="visa_icon" xmlns="http://www.w3.org/2000/svg"><path d="M39.944 0H1.055C.472 0 0 .48 0 1.073v24.854C0 26.52.472 27 1.055 27h38.89c.583 0 1.055-.48 1.055-1.073V1.073C41 .48 40.528 0 39.944 0zM3.174 8.16H7.55c.59.022 1.066.213 1.23.854l.952 4.65c-.935-2.432-3.189-4.456-6.594-5.294l.036-.21zM8.47 18.765L5.942 9.991c1.817 1.182 3.364 3.057 3.91 4.362l.294 1.084L12.91 8.26h2.991l-4.444 10.504-2.988.002zm9.63.008h-2.822l1.765-10.525h2.823L18.1 18.774zm4.912.158c-1.265-.014-2.484-.268-3.145-.562l.397-2.356.364.168c.927.393 1.527.552 2.658.552.81 0 1.68-.322 1.687-1.027.005-.461-.363-.79-1.462-1.307-1.072-.503-2.49-1.347-2.473-2.858.015-2.046 1.981-3.473 4.77-3.473 1.094 0 1.97.229 2.53.442l-.382 2.282-.255-.122a5.136 5.136 0 00-2.112-.403c-1.105 0-1.617.468-1.617.905-.006.493.598.817 1.585 1.306 1.628.75 2.381 1.662 2.37 2.859-.02 2.183-1.947 3.594-4.915 3.594zm12.232-.154s-.258-1.21-.344-1.577l-3.615-.004c-.11.284-.593 1.581-.593 1.581h-2.964l4.191-9.644c.298-.686.802-.874 1.479-.874h2.18l2.285 10.518h-2.62z"/><path d="M33.786 12.006l-.19-.907c-.144.396-.392 1.032-.376 1.004l-1.124 2.942h2.344l-.654-3.04z"/></symbol><symbol viewBox="0 0 30 30" id="vk_icon" xmlns="http://www.w3.org/2000/svg"><path d="M28.404 0H1.596C.714 0 0 .715 0 1.596v26.808C0 29.285.714 30 1.596 30h26.808c.882 0 1.596-.715 1.596-1.596V1.596C30 .715 29.286 0 28.404 0zm-4.51 16.897c.818.798 1.683 1.549 2.417 2.43.325.39.631.792.864 1.245.333.646.033 1.355-.546 1.393h-3.593c-.927.076-1.666-.298-2.288-.932-.497-.506-.958-1.046-1.437-1.568a3.385 3.385 0 00-.646-.576c-.49-.318-.915-.221-1.196.29-.286.52-.352 1.097-.378 1.677-.04.847-.296 1.068-1.145 1.107-1.816.086-3.54-.19-5.141-1.105-1.414-.807-2.507-1.948-3.46-3.238-1.855-2.516-3.277-5.277-4.553-8.118-.288-.64-.078-.982.627-.995a97.912 97.912 0 013.518-.002c.477.008.793.28.976.73.633 1.56 1.41 3.043 2.384 4.419.26.366.525.731.901.99.416.286.734.192.93-.272.125-.297.18-.611.207-.928.093-1.084.104-2.168-.057-3.247-.1-.676-.481-1.112-1.154-1.24-.343-.065-.293-.192-.126-.387.289-.34.561-.549 1.103-.549h4.06c.64.125.782.412.87 1.057l.003 4.51c-.007.25.125.989.573 1.152.358.119.596-.169.81-.397.973-1.032 1.666-2.252 2.288-3.513.273-.557.51-1.133.74-1.71.17-.426.436-.636.918-.629l3.908.004c.115 0 .233.002.347.02.658.114.838.397.635 1.04-.32 1.01-.945 1.85-1.555 2.694-.652.901-1.348 1.773-1.995 2.68-.593.83-.545 1.248.191 1.968z"/></symbol></svg>